<?xml version="1.0" encoding="UTF-8" standalone="no"?>
<!DOCTYPE svg PUBLIC "-//W3C//DTD SVG 1.1//EN" "http://www.w3.org/Graphics/SVG/1.1/DTD/svg11.dtd">
<svg xmlns="http://www.w3.org/2000/svg" version="1.1" viewBox="0.00 0.00 500.00 500.00">
<g stroke-width="2.00" fill="none" stroke-linecap="butt">
<path stroke="#b1eb89" vector-effect="non-scaling-stroke" d="
  M 281.42 80.30
  Q 277.86 79.23 276.06 81.28
  Q 275.89 81.48 275.89 81.74
  L 275.89 82.31
  A 0.62 0.60 -23.0 0 1 275.71 82.74
  L 273.97 84.35
  Q 273.78 84.53 273.85 84.78
  Q 273.90 84.95 273.91 85.12
  Q 273.93 85.48 273.67 85.73
  L 271.03 88.33
  Q 270.82 88.54 270.89 88.83
  Q 270.92 88.98 270.92 89.13
  Q 270.90 89.53 270.62 89.80
  L 269.06 91.27
  Q 268.84 91.49 268.88 91.80
  Q 268.90 91.93 268.91 92.06
  A 0.89 0.88 -24.5 0 1 268.64 92.76
  L 266.03 95.33
  Q 265.82 95.54 265.89 95.83
  Q 265.92 95.98 265.92 96.13
  Q 265.90 96.53 265.62 96.80
  L 264.06 98.27
  Q 263.84 98.49 263.88 98.80
  Q 263.90 98.93 263.91 99.06
  A 0.89 0.88 -24.5 0 1 263.64 99.76
  L 261.03 102.33
  Q 260.82 102.54 260.89 102.83
  Q 260.92 102.98 260.92 103.13
  Q 260.90 103.53 260.62 103.80
  L 259.06 105.27
  Q 258.84 105.49 258.88 105.80
  Q 258.90 105.93 258.91 106.06
  A 0.89 0.88 -24.5 0 1 258.64 106.76
  L 256.03 109.33
  Q 255.82 109.54 255.89 109.83
  Q 255.92 109.98 255.92 110.13
  Q 255.90 110.53 255.62 110.80
  L 254.08 112.26
  Q 253.89 112.43 253.89 112.69
  L 253.89 113.27
  A 0.63 0.60 69.1 0 1 253.70 113.72
  L 251.08 116.27
  Q 250.89 116.45 250.89 116.71
  L 250.89 117.18
  Q 250.89 117.53 250.64 117.78
  L 248.97 119.36
  Q 248.79 119.53 248.86 119.77
  Q 248.91 119.93 248.92 120.10
  Q 248.94 120.46 248.68 120.72
  L 246.13 123.25
  Q 245.89 123.49 245.89 123.82
  L 245.89 124.26
  A 0.86 0.85 -11.4 0 1 245.36 125.05
  Q 244.75 125.30 244.86 125.95
  Q 244.95 126.45 244.59 126.80
  L 242.20 129.18
  Q 241.86 129.52 241.88 130.00
  Q 241.90 130.51 241.90 131.03
  Q 241.90 131.37 241.68 131.64
  Q 241.39 132.00 240.95 131.88
  Q 240.38 131.72 240.09 132.24
  Q 239.69 132.97 239.93 133.82
  A 0.76 0.75 -15.1 0 1 239.38 134.76
  Q 236.65 135.42 236.88 138.04
  Q 236.93 138.50 236.59 138.82
  L 235.03 140.30
  Q 234.80 140.52 234.88 140.82
  Q 234.93 141.01 234.92 141.20
  A 0.74 0.70 70.2 0 1 234.70 141.70
  L 232.08 144.29
  Q 231.89 144.46 231.89 144.72
  L 231.89 145.16
  Q 231.89 145.52 231.64 145.76
  L 230.14 147.22
  Q 229.89 147.46 229.89 147.80
  L 229.89 148.22
  Q 229.89 148.71 229.49 149.00
  Q 227.62 150.35 226.78 152.31
  Q 226.58 152.80 226.15 153.11
  Q 225.60 153.50 225.69 154.16
  Q 225.78 154.83 225.13 154.65
  Q 224.72 154.54 224.47 154.86
  Q 224.36 155.00 224.44 155.17
  Q 224.46 155.22 224.51 155.22
  Q 224.95 155.24 224.66 155.60
  Q 224.51 155.77 224.45 155.98"
/>
<path stroke="#b1eb89" vector-effect="non-scaling-stroke" d="
  M 223.27 169.08
  Q 221.15 171.32 218.98 174.36
  Q 218.88 174.50 218.88 174.66
  Q 218.88 174.80 218.90 174.93
  Q 218.95 175.23 218.74 175.45
  L 216.39 178.03
  Q 216.02 178.44 215.87 178.96
  Q 215.54 180.07 214.53 180.82
  Q 214.22 181.04 214.10 181.39
  Q 213.37 183.37 211.37 184.90
  Q 211.04 185.15 210.97 185.56
  Q 210.75 186.88 209.59 187.75
  Q 209.23 188.03 209.07 188.45
  Q 208.36 190.37 206.40 191.87
  Q 206.04 192.15 205.96 192.59
  Q 205.74 193.85 204.65 194.71
  Q 204.25 195.03 204.06 195.52
  Q 203.32 197.39 201.42 198.85
  Q 201.06 199.12 200.97 199.56
  Q 200.68 201.06 199.33 201.96
  Q 198.91 202.24 198.90 202.75
  Q 198.89 203.24 198.63 203.67
  Q 197.98 204.69 196.98 204.94
  Q 195.41 205.35 195.91 207.04
  Q 196.14 207.83 195.32 207.87
  Q 193.59 207.95 193.91 209.68
  Q 194.02 210.33 193.52 210.75
  Q 193.29 210.94 193.01 210.88
  Q 192.36 210.72 192.03 211.30
  Q 191.69 211.88 191.21 212.30
  Q 190.73 212.72 190.87 213.34
  Q 191.03 214.01 190.71 214.55
  Q 190.43 215.03 189.89 214.89
  Q 189.55 214.80 189.28 214.99
  Q 188.64 215.46 188.86 216.23
  Q 189.28 217.67 187.96 217.90
  Q 187.46 217.98 187.46 218.49
  L 187.43 224.49"
/>
<path stroke="#e5aab7" vector-effect="non-scaling-stroke" d="
  M 176.37 258.19
  Q 175.41 258.55 175.15 258.88
  Q 174.93 259.16 174.63 258.97
  Q 174.22 258.71 173.83 259.01
  Q 173.44 259.31 173.16 258.91
  Q 172.61 258.11 171.80 258.65
  Q 170.09 259.80 169.85 261.26
  Q 169.79 261.60 169.55 261.85
  L 167.07 264.28
  Q 166.88 264.46 166.88 264.72
  L 166.88 265.18
  Q 166.88 265.53 166.63 265.78
  L 165.02 267.30
  Q 164.80 267.51 164.87 267.81
  Q 164.92 268.00 164.91 268.19
  A 0.71 0.70 -22.2 0 1 164.69 268.70
  L 162.07 271.28
  Q 161.88 271.46 161.88 271.72
  L 161.88 272.18
  Q 161.88 272.54 161.63 272.78
  L 160.02 274.30
  Q 159.79 274.52 159.86 274.82
  Q 159.90 274.98 159.91 275.13
  Q 159.93 275.44 159.71 275.66
  L 157.28 278.09
  Q 156.79 278.57 156.70 279.26
  Q 156.48 281.13 155.20 281.21
  Q 154.88 281.23 154.88 281.55
  L 154.88 281.96
  Q 154.88 282.48 154.51 282.85
  L 153.05 284.29
  Q 152.83 284.51 152.87 284.82
  Q 152.89 284.99 152.90 285.15
  Q 152.92 285.48 152.68 285.72
  L 150.07 288.28
  Q 149.88 288.46 149.88 288.72
  L 149.88 289.31
  A 0.58 0.57 68.6 0 1 149.70 289.73
  L 148.03 291.29
  Q 147.78 291.51 147.88 291.83
  Q 147.95 292.07 147.91 292.32
  A 0.74 0.71 73.7 0 1 147.71 292.71
  L 145.07 295.27
  Q 144.88 295.45 144.88 295.71
  L 144.88 296.31
  A 0.58 0.57 68.6 0 1 144.70 296.73
  L 143.03 298.29
  Q 142.78 298.51 142.88 298.83
  Q 142.96 299.09 142.89 299.38
  A 0.66 0.60 -17.8 0 1 142.70 299.71
  L 140.07 302.27
  Q 139.88 302.45 139.88 302.71
  L 139.88 303.32
  A 0.58 0.55 -22.5 0 1 139.70 303.73
  L 138.08 305.24
  Q 137.88 305.42 137.88 305.69
  L 137.88 306.22
  A 0.70 0.67 69.1 0 1 137.67 306.72
  L 135.07 309.28
  Q 134.88 309.46 134.88 309.72
  L 134.88 310.31
  A 0.58 0.57 68.6 0 1 134.70 310.73
  L 133.03 312.29
  Q 132.78 312.52 132.87 312.84
  Q 132.94 313.08 132.90 313.33
  A 0.68 0.65 -19.3 0 1 132.71 313.71
  L 130.07 316.27
  Q 129.88 316.45 129.88 316.71
  L 129.88 317.32
  A 0.58 0.55 -22.5 0 1 129.70 317.73
  L 128.03 319.29
  Q 127.80 319.50 127.87 319.81
  Q 127.92 320.02 127.91 320.21
  A 0.76 0.73 -22.2 0 1 127.69 320.71
  L 125.07 323.28
  Q 124.88 323.46 124.88 323.72
  L 124.88 324.32
  A 0.58 0.55 -22.5 0 1 124.70 324.73
  L 123.02 326.29
  Q 122.80 326.50 122.87 326.79
  Q 122.90 326.92 122.91 327.05
  Q 122.92 327.46 122.63 327.76
  L 120.17 330.20
  A 1.08 1.08 0.0 0 0 119.86 330.85
  Q 119.78 331.58 119.20 332.08
  Q 119.05 332.21 119.17 332.36
  Q 119.25 332.47 119.36 332.55
  Q 120.06 333.13 119.15 333.07
  Q 118.47 333.03 117.77 333.01"
/>
<path stroke="#bdb9b6" vector-effect="non-scaling-stroke" d="
  M 364.42 234.25
  Q 368.67 239.16 374.52 242.40
  Q 374.94 242.63 374.46 242.63
  L 373.43 242.63
  Q 372.93 242.63 372.50 242.88
  Q 371.28 243.62 370.91 245.11
  Q 370.79 245.57 370.46 245.90
  L 369.04 247.30
  Q 368.81 247.52 368.87 247.84
  Q 368.90 248.00 368.90 248.16
  Q 368.90 248.49 368.66 248.73
  L 366.06 251.28
  Q 365.88 251.46 365.88 251.72
  L 365.88 252.28
  Q 365.88 252.72 365.50 252.94
  Q 364.09 253.78 363.87 255.22
  Q 363.79 255.79 363.29 256.06
  Q 362.74 256.36 362.85 256.99
  Q 362.93 257.45 362.60 257.79
  L 359.06 261.29
  Q 358.88 261.47 358.88 261.73
  L 358.88 262.27
  Q 358.88 262.54 358.69 262.72
  L 356.07 265.27
  Q 355.88 265.45 355.88 265.71
  L 355.88 266.22
  A 0.75 0.72 -22.6 0 1 355.65 266.75
  L 354.02 268.30
  Q 353.79 268.52 353.86 268.82
  Q 353.89 268.97 353.89 269.13
  Q 353.91 269.48 353.66 269.73
  L 351.05 272.30
  Q 350.82 272.52 350.86 272.84
  Q 350.89 273.00 350.90 273.16
  Q 350.92 273.49 350.68 273.73
  L 348.96 275.36
  Q 348.77 275.54 348.85 275.79
  Q 348.89 275.94 348.90 276.11
  Q 348.91 276.47 348.66 276.72
  L 346.17 279.20
  Q 345.81 279.55 345.90 280.05
  Q 345.94 280.27 345.87 280.48
  Q 345.72 280.94 345.25 281.05
  Q 344.77 281.17 344.29 281.13
  Q 343.63 281.07 343.63 281.73
  L 343.63 283.26
  Q 343.63 283.73 343.30 284.06
  L 341.06 286.30
  Q 340.88 286.48 340.88 286.74
  L 340.88 287.19
  Q 340.88 287.53 340.62 287.77
  L 339.02 289.30
  Q 338.79 289.51 338.86 289.82
  Q 338.89 289.97 338.90 290.13
  Q 338.91 290.48 338.66 290.73
  L 336.06 293.28
  Q 335.88 293.46 335.88 293.72
  L 335.88 294.19
  Q 335.88 294.53 335.62 294.77
  L 334.02 296.30
  Q 333.79 296.52 333.85 296.82
  Q 333.89 296.97 333.89 297.13
  Q 333.91 297.48 333.66 297.73
  L 331.06 300.28
  Q 330.88 300.46 330.88 300.72
  L 330.88 301.19
  Q 330.88 301.53 330.62 301.77
  L 329.02 303.30
  Q 328.80 303.51 328.85 303.80
  Q 328.87 303.94 328.89 304.09
  Q 328.94 304.51 328.62 304.81
  C 327.63 305.73 326.36 306.78 325.85 308.06
  Q 325.36 309.30 324.29 309.98
  Q 323.81 310.29 323.92 310.86
  Q 324.08 311.67 323.37 311.96
  Q 323.05 312.09 322.99 312.42
  Q 322.93 312.72 323.21 312.60
  Q 324.07 312.25 323.50 312.99
  Q 322.73 314.01 322.13 314.97
  Q 321.88 315.39 321.82 315.88
  Q 321.73 316.77 320.64 317.82"
/>
<path stroke="#a9abc4" vector-effect="non-scaling-stroke" d="
  M 405.99 262.33
  Q 405.27 263.11 404.50 262.15
  Q 404.19 261.77 403.74 261.58
  C 403.16 261.34 402.87 261.49 402.32 261.10
  Q 401.05 260.20 399.62 259.53
  Q 398.29 258.91 397.13 258.02
  Q 395.35 256.66 393.57 255.78
  A 1.71 1.71 0.0 0 0 391.89 255.89
  Q 390.88 256.54 391.07 257.20
  Q 391.16 257.50 390.94 257.71
  L 388.27 260.31
  Q 388.05 260.52 388.11 260.82
  Q 388.15 261.00 388.13 261.19
  A 1.03 1.00 -20.4 0 1 387.82 261.84
  L 386.30 263.26
  Q 386.11 263.45 386.11 263.72
  L 386.11 264.19
  Q 386.11 264.53 385.86 264.77
  L 383.30 267.29
  Q 383.11 267.47 383.11 267.74
  L 383.11 268.16
  Q 383.11 268.50 382.87 268.74
  L 381.49 270.16
  Q 381.16 270.50 381.06 270.97
  Q 380.61 273.06 378.48 273.13
  Q 377.95 273.14 378.05 273.66
  Q 378.24 274.71 378.02 275.57
  Q 377.85 276.24 377.17 276.10
  Q 376.80 276.02 376.47 276.15
  A 0.68 0.68 0.0 0 0 376.05 277.00
  Q 376.50 278.41 375.53 279.09
  Q 375.10 279.39 375.10 279.92
  L 375.10 280.49
  Q 375.10 281.33 374.26 281.34
  L 373.63 281.35
  Q 373.12 281.35 373.11 281.87
  L 373.10 283.10
  A 1.05 1.05 0.0 0 1 372.78 283.83
  L 370.30 286.29
  Q 370.11 286.47 370.10 286.74
  L 370.09 287.22
  Q 370.09 287.56 369.84 287.80
  L 368.30 289.25
  Q 368.10 289.44 368.10 289.71
  L 368.10 290.19
  Q 368.09 290.53 367.85 290.76
  L 365.29 293.29
  Q 365.10 293.48 365.10 293.74
  L 365.09 294.22
  Q 365.09 294.56 364.85 294.79
  L 363.30 296.27
  Q 363.10 296.45 363.10 296.72
  L 363.10 297.19
  Q 363.09 297.53 362.85 297.76
  L 360.29 300.29
  Q 360.10 300.48 360.10 300.74
  L 360.09 301.22
  Q 360.09 301.56 359.84 301.79
  L 358.30 303.27
  Q 358.10 303.45 358.10 303.72
  L 358.10 304.19
  Q 358.09 304.53 357.85 304.76
  L 355.26 307.32
  Q 355.05 307.53 355.10 307.82
  Q 355.12 307.98 355.12 308.13
  A 0.98 0.98 0.0 0 1 354.81 308.82
  L 353.30 310.27
  Q 353.10 310.45 353.10 310.72
  L 353.10 311.19
  Q 353.09 311.53 352.85 311.76
  L 350.29 314.29
  Q 350.10 314.48 350.10 314.74
  L 350.09 315.22
  Q 350.09 315.56 349.84 315.79
  L 348.28 317.28
  Q 348.04 317.52 348.09 317.85
  Q 348.12 318.01 348.11 318.17
  Q 348.08 318.59 347.78 318.87
  L 345.51 321.06
  Q 345.10 321.45 345.07 322.01
  Q 345.01 322.96 343.68 323.84
  A 1.45 1.40 83.7 0 0 343.13 324.55
  Q 343.08 324.70 343.08 324.87
  Q 343.09 325.24 342.87 325.53
  L 340.57 328.65
  Q 340.30 329.02 340.44 329.46
  Q 340.94 331.00 340.16 332.07"
/>
<path stroke="#de9ac3" vector-effect="non-scaling-stroke" d="
  M 131.72 391.47
  Q 131.32 390.74 131.43 389.98
  Q 131.51 389.50 131.25 389.09
  Q 130.22 387.48 130.17 385.63
  Q 130.05 381.01 130.10 376.37
  Q 130.11 375.35 129.37 376.05
  Q 128.96 376.44 128.95 377.00
  Q 128.94 377.48 128.60 377.81
  L 127.11 379.26
  A 0.75 0.72 -28.0 0 0 126.89 379.92
  Q 126.92 380.07 126.92 380.21
  A 0.67 0.65 67.2 0 1 126.73 380.70
  L 124.06 383.29
  Q 123.84 383.51 123.89 383.81
  Q 123.91 384.01 123.92 384.21
  A 0.72 0.71 67.4 0 1 123.70 384.75
  L 122.03 386.30
  Q 121.81 386.50 121.88 386.80
  Q 121.91 386.96 121.92 387.13
  Q 121.93 387.48 121.68 387.73
  L 119.08 390.29
  Q 118.90 390.46 118.90 390.72
  L 118.90 391.16
  Q 118.90 391.52 118.65 391.76
  L 117.07 393.30
  Q 116.83 393.53 116.90 393.84
  Q 116.93 394.00 116.92 394.17
  Q 116.89 394.51 116.65 394.75
  L 114.18 397.21
  Q 113.85 397.54 113.91 398.00
  Q 113.96 398.29 113.85 398.55
  Q 113.70 398.89 113.37 399.05
  Q 112.01 399.73 111.92 401.09
  Q 111.89 401.54 111.57 401.87
  Q 110.51 402.91 109.44 403.79
  Q 108.86 404.27 108.91 405.02
  Q 108.93 405.50 108.59 405.83
  L 107.06 407.28
  Q 106.90 407.43 106.91 407.65
  Q 106.91 407.78 106.92 407.92
  Q 106.96 408.42 106.60 408.79
  L 104.25 411.16
  A 1.06 1.04 71.0 0 0 103.95 411.79
  Q 103.81 413.02 102.55 413.82
  A 1.51 1.46 -7.1 0 0 101.93 414.59
  Q 101.43 416.08 102.24 417.24"
/>
<path stroke="#a9abc4" vector-effect="non-scaling-stroke" d="
  M 341.26 346.95
  L 336.44 351.81
  Q 336.07 352.18 335.99 352.70
  Q 335.77 354.13 334.22 355.02
  Q 333.88 355.22 333.88 355.61
  L 333.88 355.97
  Q 333.88 356.48 333.51 356.85
  L 332.05 358.29
  Q 331.82 358.51 331.87 358.83
  Q 331.89 358.98 331.90 359.13
  Q 331.92 359.48 331.67 359.72
  L 329.07 362.28
  Q 328.88 362.46 328.88 362.72
  L 328.88 363.22
  A 0.71 0.70 -22.2 0 1 328.66 363.73
  L 327.15 365.20
  Q 326.80 365.54 327.15 365.89
  L 327.40 366.14
  Q 327.90 366.65 327.22 366.86
  Q 327.08 366.91 326.92 366.90
  Q 326.52 366.87 326.22 367.16
  L 324.07 369.28
  Q 323.88 369.47 323.88 369.73
  L 323.88 370.22
  A 0.71 0.70 -22.2 0 1 323.66 370.73
  L 322.15 372.20
  Q 321.80 372.54 322.15 372.89
  L 322.39 373.14
  Q 322.91 373.65 322.21 373.87
  Q 322.07 373.91 321.93 373.90
  Q 321.52 373.87 321.22 374.16
  L 319.05 376.30
  Q 318.81 376.53 318.88 376.86
  Q 318.93 377.04 318.89 377.23
  Q 318.84 377.52 318.64 377.72
  L 317.10 379.32
  A 0.37 0.37 0.0 0 0 317.11 379.85
  L 317.39 380.13
  Q 317.93 380.67 317.19 380.85
  Q 314.80 381.44 314.87 384.05
  Q 314.88 384.33 314.69 384.55
  L 312.94 386.55
  A 0.55 0.41 -22.7 0 0 312.84 386.72
  Q 312.20 388.65 310.34 389.95
  Q 309.68 390.42 309.88 391.21
  Q 309.99 391.64 309.61 391.88
  Q 308.22 392.75 307.71 394.12
  C 307.25 395.36 306.23 396.22 305.27 397.05
  Q 305.02 397.26 304.92 397.58
  Q 304.85 397.79 304.88 398.02
  Q 304.94 398.46 304.65 398.78
  Q 303.88 399.65 304.14 401.28"
/>
</g>
<path fill="#c0e989" d="
  M 281.42 80.30
  Q 277.86 79.23 276.06 81.28
  Q 275.89 81.48 275.89 81.74
  L 275.89 82.31
  A 0.62 0.60 -23.0 0 1 275.71 82.74
  L 273.97 84.35
  Q 273.78 84.53 273.85 84.78
  Q 273.90 84.95 273.91 85.12
  Q 273.93 85.48 273.67 85.73
  L 271.03 88.33
  Q 270.82 88.54 270.89 88.83
  Q 270.92 88.98 270.92 89.13
  Q 270.90 89.53 270.62 89.80
  L 269.06 91.27
  Q 268.84 91.49 268.88 91.80
  Q 268.90 91.93 268.91 92.06
  A 0.89 0.88 -24.5 0 1 268.64 92.76
  L 266.03 95.33
  Q 265.82 95.54 265.89 95.83
  Q 265.92 95.98 265.92 96.13
  Q 265.90 96.53 265.62 96.80
  L 264.06 98.27
  Q 263.84 98.49 263.88 98.80
  Q 263.90 98.93 263.91 99.06
  A 0.89 0.88 -24.5 0 1 263.64 99.76
  L 261.03 102.33
  Q 260.82 102.54 260.89 102.83
  Q 260.92 102.98 260.92 103.13
  Q 260.90 103.53 260.62 103.80
  L 259.06 105.27
  Q 258.84 105.49 258.88 105.80
  Q 258.90 105.93 258.91 106.06
  A 0.89 0.88 -24.5 0 1 258.64 106.76
  L 256.03 109.33
  Q 255.82 109.54 255.89 109.83
  Q 255.92 109.98 255.92 110.13
  Q 255.90 110.53 255.62 110.80
  L 254.08 112.26
  Q 253.89 112.43 253.89 112.69
  L 253.89 113.27
  A 0.63 0.60 69.1 0 1 253.70 113.72
  L 251.08 116.27
  Q 250.89 116.45 250.89 116.71
  L 250.89 117.18
  Q 250.89 117.53 250.64 117.78
  L 248.97 119.36
  Q 248.79 119.53 248.86 119.77
  Q 248.91 119.93 248.92 120.10
  Q 248.94 120.46 248.68 120.72
  L 246.13 123.25
  Q 245.89 123.49 245.89 123.82
  L 245.89 124.26
  A 0.86 0.85 -11.4 0 1 245.36 125.05
  Q 244.75 125.30 244.86 125.95
  Q 244.95 126.45 244.59 126.80
  L 242.20 129.18
  Q 241.86 129.52 241.88 130.00
  Q 241.90 130.51 241.90 131.03
  Q 241.90 131.37 241.68 131.64
  Q 241.39 132.00 240.95 131.88
  Q 240.38 131.72 240.09 132.24
  Q 239.69 132.97 239.93 133.82
  A 0.76 0.75 -15.1 0 1 239.38 134.76
  Q 236.65 135.42 236.88 138.04
  Q 236.93 138.50 236.59 138.82
  L 235.03 140.30
  Q 234.80 140.52 234.88 140.82
  Q 234.93 141.01 234.92 141.20
  A 0.74 0.70 70.2 0 1 234.70 141.70
  L 232.08 144.29
  Q 231.89 144.46 231.89 144.72
  L 231.89 145.16
  Q 231.89 145.52 231.64 145.76
  L 230.14 147.22
  Q 229.89 147.46 229.89 147.80
  L 229.89 148.22
  Q 229.89 148.71 229.49 149.00
  Q 227.62 150.35 226.78 152.31
  Q 226.58 152.80 226.15 153.11
  Q 225.60 153.50 225.69 154.16
  Q 225.78 154.83 225.13 154.65
  Q 224.72 154.54 224.47 154.86
  Q 224.36 155.00 224.44 155.17
  Q 224.46 155.22 224.51 155.22
  Q 224.95 155.24 224.66 155.60
  Q 224.51 155.77 224.45 155.98
  L 168.10 114.63
  Q 167.69 114.33 168.11 114.05
  Q 203.03 90.20 242.85 62.97
  Q 247.21 59.99 251.53 60.96
  Q 253.93 61.50 258.37 64.51
  Q 269.85 72.28 281.42 80.30
  Z"
/>
<path fill="#a1ec89" d="
  M 281.42 80.30
  L 330.89 114.06
  Q 331.31 114.35 330.90 114.65
  L 250.51 173.60
  A 1.72 1.70 -44.8 0 1 248.50 173.60
  L 224.45 155.98
  Q 224.51 155.77 224.66 155.60
  Q 224.95 155.24 224.51 155.22
  Q 224.46 155.22 224.44 155.17
  Q 224.36 155.00 224.47 154.86
  Q 224.72 154.54 225.13 154.65
  Q 225.78 154.83 225.69 154.16
  Q 225.60 153.50 226.15 153.11
  Q 226.58 152.80 226.78 152.31
  Q 227.62 150.35 229.49 149.00
  Q 229.89 148.71 229.89 148.22
  L 229.89 147.80
  Q 229.89 147.46 230.14 147.22
  L 231.64 145.76
  Q 231.89 145.52 231.89 145.16
  L 231.89 144.72
  Q 231.89 144.46 232.08 144.29
  L 234.70 141.70
  A 0.74 0.70 70.2 0 0 234.92 141.20
  Q 234.93 141.01 234.88 140.82
  Q 234.80 140.52 235.03 140.30
  L 236.59 138.82
  Q 236.93 138.50 236.88 138.04
  Q 236.65 135.42 239.38 134.76
  A 0.76 0.75 -15.1 0 0 239.93 133.82
  Q 239.69 132.97 240.09 132.24
  Q 240.38 131.72 240.95 131.88
  Q 241.39 132.00 241.68 131.64
  Q 241.90 131.37 241.90 131.03
  Q 241.90 130.51 241.88 130.00
  Q 241.86 129.52 242.20 129.18
  L 244.59 126.80
  Q 244.95 126.45 244.86 125.95
  Q 244.75 125.30 245.36 125.05
  A 0.86 0.85 -11.4 0 0 245.89 124.26
  L 245.89 123.82
  Q 245.89 123.49 246.13 123.25
  L 248.68 120.72
  Q 248.94 120.46 248.92 120.10
  Q 248.91 119.93 248.86 119.77
  Q 248.79 119.53 248.97 119.36
  L 250.64 117.78
  Q 250.89 117.53 250.89 117.18
  L 250.89 116.71
  Q 250.89 116.45 251.08 116.27
  L 253.70 113.72
  A 0.63 0.60 69.1 0 0 253.89 113.27
  L 253.89 112.69
  Q 253.89 112.43 254.08 112.26
  L 255.62 110.80
  Q 255.90 110.53 255.92 110.13
  Q 255.92 109.98 255.89 109.83
  Q 255.82 109.54 256.03 109.33
  L 258.64 106.76
  A 0.89 0.88 -24.5 0 0 258.91 106.06
  Q 258.90 105.93 258.88 105.80
  Q 258.84 105.49 259.06 105.27
  L 260.62 103.80
  Q 260.90 103.53 260.92 103.13
  Q 260.92 102.98 260.89 102.83
  Q 260.82 102.54 261.03 102.33
  L 263.64 99.76
  A 0.89 0.88 -24.5 0 0 263.91 99.06
  Q 263.90 98.93 263.88 98.80
  Q 263.84 98.49 264.06 98.27
  L 265.62 96.80
  Q 265.90 96.53 265.92 96.13
  Q 265.92 95.98 265.89 95.83
  Q 265.82 95.54 266.03 95.33
  L 268.64 92.76
  A 0.89 0.88 -24.5 0 0 268.91 92.06
  Q 268.90 91.93 268.88 91.80
  Q 268.84 91.49 269.06 91.27
  L 270.62 89.80
  Q 270.90 89.53 270.92 89.13
  Q 270.92 88.98 270.89 88.83
  Q 270.82 88.54 271.03 88.33
  L 273.67 85.73
  Q 273.93 85.48 273.91 85.12
  Q 273.90 84.95 273.85 84.78
  Q 273.78 84.53 273.97 84.35
  L 275.71 82.74
  A 0.62 0.60 -23.0 0 0 275.89 82.31
  L 275.89 81.74
  Q 275.89 81.48 276.06 81.28
  Q 277.86 79.23 281.42 80.30
  Z"
/>
<path fill="#c0e989" d="
  M 223.27 169.08
  Q 221.15 171.32 218.98 174.36
  Q 218.88 174.50 218.88 174.66
  Q 218.88 174.80 218.90 174.93
  Q 218.95 175.23 218.74 175.45
  L 216.39 178.03
  Q 216.02 178.44 215.87 178.96
  Q 215.54 180.07 214.53 180.82
  Q 214.22 181.04 214.10 181.39
  Q 213.37 183.37 211.37 184.90
  Q 211.04 185.15 210.97 185.56
  Q 210.75 186.88 209.59 187.75
  Q 209.23 188.03 209.07 188.45
  Q 208.36 190.37 206.40 191.87
  Q 206.04 192.15 205.96 192.59
  Q 205.74 193.85 204.65 194.71
  Q 204.25 195.03 204.06 195.52
  Q 203.32 197.39 201.42 198.85
  Q 201.06 199.12 200.97 199.56
  Q 200.68 201.06 199.33 201.96
  Q 198.91 202.24 198.90 202.75
  Q 198.89 203.24 198.63 203.67
  Q 197.98 204.69 196.98 204.94
  Q 195.41 205.35 195.91 207.04
  Q 196.14 207.83 195.32 207.87
  Q 193.59 207.95 193.91 209.68
  Q 194.02 210.33 193.52 210.75
  Q 193.29 210.94 193.01 210.88
  Q 192.36 210.72 192.03 211.30
  Q 191.69 211.88 191.21 212.30
  Q 190.73 212.72 190.87 213.34
  Q 191.03 214.01 190.71 214.55
  Q 190.43 215.03 189.89 214.89
  Q 189.55 214.80 189.28 214.99
  Q 188.64 215.46 188.86 216.23
  Q 189.28 217.67 187.96 217.90
  Q 187.46 217.98 187.46 218.49
  L 187.43 224.49
  Q 177.49 217.22 167.58 209.91
  C 163.09 206.59 161.95 203.67 161.96 198.00
  Q 162.03 161.45 161.98 124.87
  Q 161.98 124.23 162.50 124.61
  L 223.27 169.08
  Z"
/>
<path fill="#7fef88" d="
  M 256.90 264.69
  Q 256.50 264.98 256.23 265.09
  A 0.58 0.58 0.0 0 1 255.44 264.55
  L 255.46 184.53
  A 1.28 1.27 72.1 0 1 255.98 183.50
  L 336.68 124.42
  Q 336.98 124.20 336.98 124.57
  Q 337.05 162.83 336.97 200.87
  C 336.96 205.19 334.16 207.96 330.62 210.56
  Q 293.74 237.60 256.90 264.69
  Z"
/>
<path fill="#a1ec89" d="
  M 223.27 169.08
  L 242.99 183.46
  A 1.58 1.57 -72.0 0 1 243.63 184.73
  L 243.61 264.51
  A 0.58 0.58 0.0 0 1 242.69 264.98
  L 187.43 224.49
  L 187.46 218.49
  Q 187.46 217.98 187.96 217.90
  Q 189.28 217.67 188.86 216.23
  Q 188.64 215.46 189.28 214.99
  Q 189.55 214.80 189.89 214.89
  Q 190.43 215.03 190.71 214.55
  Q 191.03 214.01 190.87 213.34
  Q 190.73 212.72 191.21 212.30
  Q 191.69 211.88 192.03 211.30
  Q 192.36 210.72 193.01 210.88
  Q 193.29 210.94 193.52 210.75
  Q 194.02 210.33 193.91 209.68
  Q 193.59 207.95 195.32 207.87
  Q 196.14 207.83 195.91 207.04
  Q 195.41 205.35 196.98 204.94
  Q 197.98 204.69 198.63 203.67
  Q 198.89 203.24 198.90 202.75
  Q 198.91 202.24 199.33 201.96
  Q 200.68 201.06 200.97 199.56
  Q 201.06 199.12 201.42 198.85
  Q 203.32 197.39 204.06 195.52
  Q 204.25 195.03 204.65 194.71
  Q 205.74 193.85 205.96 192.59
  Q 206.04 192.15 206.40 191.87
  Q 208.36 190.37 209.07 188.45
  Q 209.23 188.03 209.59 187.75
  Q 210.75 186.88 210.97 185.56
  Q 211.04 185.15 211.37 184.90
  Q 213.37 183.37 214.10 181.39
  Q 214.22 181.04 214.53 180.82
  Q 215.54 180.07 215.87 178.96
  Q 216.02 178.44 216.39 178.03
  L 218.74 175.45
  Q 218.95 175.23 218.90 174.93
  Q 218.88 174.80 218.88 174.66
  Q 218.88 174.50 218.98 174.36
  Q 221.15 171.32 223.27 169.08
  Z"
/>
<path fill="#e9b5ae" d="
  M 176.37 258.19
  Q 175.41 258.55 175.15 258.88
  Q 174.93 259.16 174.63 258.97
  Q 174.22 258.71 173.83 259.01
  Q 173.44 259.31 173.16 258.91
  Q 172.61 258.11 171.80 258.65
  Q 170.09 259.80 169.85 261.26
  Q 169.79 261.60 169.55 261.85
  L 167.07 264.28
  Q 166.88 264.46 166.88 264.72
  L 166.88 265.18
  Q 166.88 265.53 166.63 265.78
  L 165.02 267.30
  Q 164.80 267.51 164.87 267.81
  Q 164.92 268.00 164.91 268.19
  A 0.71 0.70 -22.2 0 1 164.69 268.70
  L 162.07 271.28
  Q 161.88 271.46 161.88 271.72
  L 161.88 272.18
  Q 161.88 272.54 161.63 272.78
  L 160.02 274.30
  Q 159.79 274.52 159.86 274.82
  Q 159.90 274.98 159.91 275.13
  Q 159.93 275.44 159.71 275.66
  L 157.28 278.09
  Q 156.79 278.57 156.70 279.26
  Q 156.48 281.13 155.20 281.21
  Q 154.88 281.23 154.88 281.55
  L 154.88 281.96
  Q 154.88 282.48 154.51 282.85
  L 153.05 284.29
  Q 152.83 284.51 152.87 284.82
  Q 152.89 284.99 152.90 285.15
  Q 152.92 285.48 152.68 285.72
  L 150.07 288.28
  Q 149.88 288.46 149.88 288.72
  L 149.88 289.31
  A 0.58 0.57 68.6 0 1 149.70 289.73
  L 148.03 291.29
  Q 147.78 291.51 147.88 291.83
  Q 147.95 292.07 147.91 292.32
  A 0.74 0.71 73.7 0 1 147.71 292.71
  L 145.07 295.27
  Q 144.88 295.45 144.88 295.71
  L 144.88 296.31
  A 0.58 0.57 68.6 0 1 144.70 296.73
  L 143.03 298.29
  Q 142.78 298.51 142.88 298.83
  Q 142.96 299.09 142.89 299.38
  A 0.66 0.60 -17.8 0 1 142.70 299.71
  L 140.07 302.27
  Q 139.88 302.45 139.88 302.71
  L 139.88 303.32
  A 0.58 0.55 -22.5 0 1 139.70 303.73
  L 138.08 305.24
  Q 137.88 305.42 137.88 305.69
  L 137.88 306.22
  A 0.70 0.67 69.1 0 1 137.67 306.72
  L 135.07 309.28
  Q 134.88 309.46 134.88 309.72
  L 134.88 310.31
  A 0.58 0.57 68.6 0 1 134.70 310.73
  L 133.03 312.29
  Q 132.78 312.52 132.87 312.84
  Q 132.94 313.08 132.90 313.33
  A 0.68 0.65 -19.3 0 1 132.71 313.71
  L 130.07 316.27
  Q 129.88 316.45 129.88 316.71
  L 129.88 317.32
  A 0.58 0.55 -22.5 0 1 129.70 317.73
  L 128.03 319.29
  Q 127.80 319.50 127.87 319.81
  Q 127.92 320.02 127.91 320.21
  A 0.76 0.73 -22.2 0 1 127.69 320.71
  L 125.07 323.28
  Q 124.88 323.46 124.88 323.72
  L 124.88 324.32
  A 0.58 0.55 -22.5 0 1 124.70 324.73
  L 123.02 326.29
  Q 122.80 326.50 122.87 326.79
  Q 122.90 326.92 122.91 327.05
  Q 122.92 327.46 122.63 327.76
  L 120.17 330.20
  A 1.08 1.08 0.0 0 0 119.86 330.85
  Q 119.78 331.58 119.20 332.08
  Q 119.05 332.21 119.17 332.36
  Q 119.25 332.47 119.36 332.55
  Q 120.06 333.13 119.15 333.07
  Q 118.47 333.03 117.77 333.01
  L 56.51 288.13
  Q 55.82 287.63 56.53 287.15
  Q 93.73 261.77 131.05 236.29
  C 134.99 233.60 139.98 233.48 144.04 236.17
  Q 152.76 241.95 176.37 258.19
  Z"
/>
<path fill="#c3bdb1" d="
  M 364.42 234.25
  Q 368.67 239.16 374.52 242.40
  Q 374.94 242.63 374.46 242.63
  L 373.43 242.63
  Q 372.93 242.63 372.50 242.88
  Q 371.28 243.62 370.91 245.11
  Q 370.79 245.57 370.46 245.90
  L 369.04 247.30
  Q 368.81 247.52 368.87 247.84
  Q 368.90 248.00 368.90 248.16
  Q 368.90 248.49 368.66 248.73
  L 366.06 251.28
  Q 365.88 251.46 365.88 251.72
  L 365.88 252.28
  Q 365.88 252.72 365.50 252.94
  Q 364.09 253.78 363.87 255.22
  Q 363.79 255.79 363.29 256.06
  Q 362.74 256.36 362.85 256.99
  Q 362.93 257.45 362.60 257.79
  L 359.06 261.29
  Q 358.88 261.47 358.88 261.73
  L 358.88 262.27
  Q 358.88 262.54 358.69 262.72
  L 356.07 265.27
  Q 355.88 265.45 355.88 265.71
  L 355.88 266.22
  A 0.75 0.72 -22.6 0 1 355.65 266.75
  L 354.02 268.30
  Q 353.79 268.52 353.86 268.82
  Q 353.89 268.97 353.89 269.13
  Q 353.91 269.48 353.66 269.73
  L 351.05 272.30
  Q 350.82 272.52 350.86 272.84
  Q 350.89 273.00 350.90 273.16
  Q 350.92 273.49 350.68 273.73
  L 348.96 275.36
  Q 348.77 275.54 348.85 275.79
  Q 348.89 275.94 348.90 276.11
  Q 348.91 276.47 348.66 276.72
  L 346.17 279.20
  Q 345.81 279.55 345.90 280.05
  Q 345.94 280.27 345.87 280.48
  Q 345.72 280.94 345.25 281.05
  Q 344.77 281.17 344.29 281.13
  Q 343.63 281.07 343.63 281.73
  L 343.63 283.26
  Q 343.63 283.73 343.30 284.06
  L 341.06 286.30
  Q 340.88 286.48 340.88 286.74
  L 340.88 287.19
  Q 340.88 287.53 340.62 287.77
  L 339.02 289.30
  Q 338.79 289.51 338.86 289.82
  Q 338.89 289.97 338.90 290.13
  Q 338.91 290.48 338.66 290.73
  L 336.06 293.28
  Q 335.88 293.46 335.88 293.72
  L 335.88 294.19
  Q 335.88 294.53 335.62 294.77
  L 334.02 296.30
  Q 333.79 296.52 333.85 296.82
  Q 333.89 296.97 333.89 297.13
  Q 333.91 297.48 333.66 297.73
  L 331.06 300.28
  Q 330.88 300.46 330.88 300.72
  L 330.88 301.19
  Q 330.88 301.53 330.62 301.77
  L 329.02 303.30
  Q 328.80 303.51 328.85 303.80
  Q 328.87 303.94 328.89 304.09
  Q 328.94 304.51 328.62 304.81
  C 327.63 305.73 326.36 306.78 325.85 308.06
  Q 325.36 309.30 324.29 309.98
  Q 323.81 310.29 323.92 310.86
  Q 324.08 311.67 323.37 311.96
  Q 323.05 312.09 322.99 312.42
  Q 322.93 312.72 323.21 312.60
  Q 324.07 312.25 323.50 312.99
  Q 322.73 314.01 322.13 314.97
  Q 321.88 315.39 321.82 315.88
  Q 321.73 316.77 320.64 317.82
  L 280.13 288.15
  Q 279.45 287.65 280.14 287.18
  Q 317.08 261.96 353.54 237.06
  Q 358.79 233.47 364.42 234.25
  Z"
/>
<path fill="#b6b4ba" d="
  M 364.42 234.25
  L 405.99 262.33
  Q 405.27 263.11 404.50 262.15
  Q 404.19 261.77 403.74 261.58
  C 403.16 261.34 402.87 261.49 402.32 261.10
  Q 401.05 260.20 399.62 259.53
  Q 398.29 258.91 397.13 258.02
  Q 395.35 256.66 393.57 255.78
  A 1.71 1.71 0.0 0 0 391.89 255.89
  Q 390.88 256.54 391.07 257.20
  Q 391.16 257.50 390.94 257.71
  L 388.27 260.31
  Q 388.05 260.52 388.11 260.82
  Q 388.15 261.00 388.13 261.19
  A 1.03 1.00 -20.4 0 1 387.82 261.84
  L 386.30 263.26
  Q 386.11 263.45 386.11 263.72
  L 386.11 264.19
  Q 386.11 264.53 385.86 264.77
  L 383.30 267.29
  Q 383.11 267.47 383.11 267.74
  L 383.11 268.16
  Q 383.11 268.50 382.87 268.74
  L 381.49 270.16
  Q 381.16 270.50 381.06 270.97
  Q 380.61 273.06 378.48 273.13
  Q 377.95 273.14 378.05 273.66
  Q 378.24 274.71 378.02 275.57
  Q 377.85 276.24 377.17 276.10
  Q 376.80 276.02 376.47 276.15
  A 0.68 0.68 0.0 0 0 376.05 277.00
  Q 376.50 278.41 375.53 279.09
  Q 375.10 279.39 375.10 279.92
  L 375.10 280.49
  Q 375.10 281.33 374.26 281.34
  L 373.63 281.35
  Q 373.12 281.35 373.11 281.87
  L 373.10 283.10
  A 1.05 1.05 0.0 0 1 372.78 283.83
  L 370.30 286.29
  Q 370.11 286.47 370.10 286.74
  L 370.09 287.22
  Q 370.09 287.56 369.84 287.80
  L 368.30 289.25
  Q 368.10 289.44 368.10 289.71
  L 368.10 290.19
  Q 368.09 290.53 367.85 290.76
  L 365.29 293.29
  Q 365.10 293.48 365.10 293.74
  L 365.09 294.22
  Q 365.09 294.56 364.85 294.79
  L 363.30 296.27
  Q 363.10 296.45 363.10 296.72
  L 363.10 297.19
  Q 363.09 297.53 362.85 297.76
  L 360.29 300.29
  Q 360.10 300.48 360.10 300.74
  L 360.09 301.22
  Q 360.09 301.56 359.84 301.79
  L 358.30 303.27
  Q 358.10 303.45 358.10 303.72
  L 358.10 304.19
  Q 358.09 304.53 357.85 304.76
  L 355.26 307.32
  Q 355.05 307.53 355.10 307.82
  Q 355.12 307.98 355.12 308.13
  A 0.98 0.98 0.0 0 1 354.81 308.82
  L 353.30 310.27
  Q 353.10 310.45 353.10 310.72
  L 353.10 311.19
  Q 353.09 311.53 352.85 311.76
  L 350.29 314.29
  Q 350.10 314.48 350.10 314.74
  L 350.09 315.22
  Q 350.09 315.56 349.84 315.79
  L 348.28 317.28
  Q 348.04 317.52 348.09 317.85
  Q 348.12 318.01 348.11 318.17
  Q 348.08 318.59 347.78 318.87
  L 345.51 321.06
  Q 345.10 321.45 345.07 322.01
  Q 345.01 322.96 343.68 323.84
  A 1.45 1.40 83.7 0 0 343.13 324.55
  Q 343.08 324.70 343.08 324.87
  Q 343.09 325.24 342.87 325.53
  L 340.57 328.65
  Q 340.30 329.02 340.44 329.46
  Q 340.94 331.00 340.16 332.07
  L 320.64 317.82
  Q 321.73 316.77 321.82 315.88
  Q 321.88 315.39 322.13 314.97
  Q 322.73 314.01 323.50 312.99
  Q 324.07 312.25 323.21 312.60
  Q 322.93 312.72 322.99 312.42
  Q 323.05 312.09 323.37 311.96
  Q 324.08 311.67 323.92 310.86
  Q 323.81 310.29 324.29 309.98
  Q 325.36 309.30 325.85 308.06
  C 326.36 306.78 327.63 305.73 328.62 304.81
  Q 328.94 304.51 328.89 304.09
  Q 328.87 303.94 328.85 303.80
  Q 328.80 303.51 329.02 303.30
  L 330.62 301.77
  Q 330.88 301.53 330.88 301.19
  L 330.88 300.72
  Q 330.88 300.46 331.06 300.28
  L 333.66 297.73
  Q 333.91 297.48 333.89 297.13
  Q 333.89 296.97 333.85 296.82
  Q 333.79 296.52 334.02 296.30
  L 335.62 294.77
  Q 335.88 294.53 335.88 294.19
  L 335.88 293.72
  Q 335.88 293.46 336.06 293.28
  L 338.66 290.73
  Q 338.91 290.48 338.90 290.13
  Q 338.89 289.97 338.86 289.82
  Q 338.79 289.51 339.02 289.30
  L 340.62 287.77
  Q 340.88 287.53 340.88 287.19
  L 340.88 286.74
  Q 340.88 286.48 341.06 286.30
  L 343.30 284.06
  Q 343.63 283.73 343.63 283.26
  L 343.63 281.73
  Q 343.63 281.07 344.29 281.13
  Q 344.77 281.17 345.25 281.05
  Q 345.72 280.94 345.87 280.48
  Q 345.94 280.27 345.90 280.05
  Q 345.81 279.55 346.17 279.20
  L 348.66 276.72
  Q 348.91 276.47 348.90 276.11
  Q 348.89 275.94 348.85 275.79
  Q 348.77 275.54 348.96 275.36
  L 350.68 273.73
  Q 350.92 273.49 350.90 273.16
  Q 350.89 273.00 350.86 272.84
  Q 350.82 272.52 351.05 272.30
  L 353.66 269.73
  Q 353.91 269.48 353.89 269.13
  Q 353.89 268.97 353.86 268.82
  Q 353.79 268.52 354.02 268.30
  L 355.65 266.75
  A 0.75 0.72 -22.6 0 0 355.88 266.22
  L 355.88 265.71
  Q 355.88 265.45 356.07 265.27
  L 358.69 262.72
  Q 358.88 262.54 358.88 262.27
  L 358.88 261.73
  Q 358.88 261.47 359.06 261.29
  L 362.60 257.79
  Q 362.93 257.45 362.85 256.99
  Q 362.74 256.36 363.29 256.06
  Q 363.79 255.79 363.87 255.22
  Q 364.09 253.78 365.50 252.94
  Q 365.88 252.72 365.88 252.28
  L 365.88 251.72
  Q 365.88 251.46 366.06 251.28
  L 368.66 248.73
  Q 368.90 248.49 368.90 248.16
  Q 368.90 248.00 368.87 247.84
  Q 368.81 247.52 369.04 247.30
  L 370.46 245.90
  Q 370.79 245.57 370.91 245.11
  Q 371.28 243.62 372.50 242.88
  Q 372.93 242.63 373.43 242.63
  L 374.46 242.63
  Q 374.94 242.63 374.52 242.40
  Q 368.67 239.16 364.42 234.25
  Z"
/>
<path fill="#9ba2cd" d="
  M 405.99 262.33
  L 442.46 287.18
  Q 443.13 287.63 442.47 288.11
  L 362.04 347.04
  Q 361.36 347.53 360.68 347.04
  L 340.16 332.07
  Q 340.94 331.00 340.44 329.46
  Q 340.30 329.02 340.57 328.65
  L 342.87 325.53
  Q 343.09 325.24 343.08 324.87
  Q 343.08 324.70 343.13 324.55
  A 1.45 1.40 83.7 0 1 343.68 323.84
  Q 345.01 322.96 345.07 322.01
  Q 345.10 321.45 345.51 321.06
  L 347.78 318.87
  Q 348.08 318.59 348.11 318.17
  Q 348.12 318.01 348.09 317.85
  Q 348.04 317.52 348.28 317.28
  L 349.84 315.79
  Q 350.09 315.56 350.09 315.22
  L 350.10 314.74
  Q 350.10 314.48 350.29 314.29
  L 352.85 311.76
  Q 353.09 311.53 353.10 311.19
  L 353.10 310.72
  Q 353.10 310.45 353.30 310.27
  L 354.81 308.82
  A 0.98 0.98 0.0 0 0 355.12 308.13
  Q 355.12 307.98 355.10 307.82
  Q 355.05 307.53 355.26 307.32
  L 357.85 304.76
  Q 358.09 304.53 358.10 304.19
  L 358.10 303.72
  Q 358.10 303.45 358.30 303.27
  L 359.84 301.79
  Q 360.09 301.56 360.09 301.22
  L 360.10 300.74
  Q 360.10 300.48 360.29 300.29
  L 362.85 297.76
  Q 363.09 297.53 363.10 297.19
  L 363.10 296.72
  Q 363.10 296.45 363.30 296.27
  L 364.85 294.79
  Q 365.09 294.56 365.09 294.22
  L 365.10 293.74
  Q 365.10 293.48 365.29 293.29
  L 367.85 290.76
  Q 368.09 290.53 368.10 290.19
  L 368.10 289.71
  Q 368.10 289.44 368.30 289.25
  L 369.84 287.80
  Q 370.09 287.56 370.09 287.22
  L 370.10 286.74
  Q 370.11 286.47 370.30 286.29
  L 372.78 283.83
  A 1.05 1.05 0.0 0 0 373.10 283.10
  L 373.11 281.87
  Q 373.12 281.35 373.63 281.35
  L 374.26 281.34
  Q 375.10 281.33 375.10 280.49
  L 375.10 279.92
  Q 375.10 279.39 375.53 279.09
  Q 376.50 278.41 376.05 277.00
  A 0.68 0.68 0.0 0 1 376.47 276.15
  Q 376.80 276.02 377.17 276.10
  Q 377.85 276.24 378.02 275.57
  Q 378.24 274.71 378.05 273.66
  Q 377.95 273.14 378.48 273.13
  Q 380.61 273.06 381.06 270.97
  Q 381.16 270.50 381.49 270.16
  L 382.87 268.74
  Q 383.11 268.50 383.11 268.16
  L 383.11 267.74
  Q 383.11 267.47 383.30 267.29
  L 385.86 264.77
  Q 386.11 264.53 386.11 264.19
  L 386.11 263.72
  Q 386.11 263.45 386.30 263.26
  L 387.82 261.84
  A 1.03 1.00 -20.4 0 0 388.13 261.19
  Q 388.15 261.00 388.11 260.82
  Q 388.05 260.52 388.27 260.31
  L 390.94 257.71
  Q 391.16 257.50 391.07 257.20
  Q 390.88 256.54 391.89 255.89
  A 1.71 1.71 0.0 0 1 393.57 255.78
  Q 395.35 256.66 397.13 258.02
  Q 398.29 258.91 399.62 259.53
  Q 401.05 260.20 402.32 261.10
  C 402.87 261.49 403.16 261.34 403.74 261.58
  Q 404.19 261.77 404.50 262.15
  Q 405.27 263.11 405.99 262.33
  Z"
/>
<path fill="#e09fbf" d="
  M 176.37 258.19
  L 218.99 287.33
  Q 219.49 287.66 219.00 288.02
  L 138.51 346.96
  A 1.43 1.42 44.8 0 1 136.82 346.96
  L 117.77 333.01
  Q 118.47 333.03 119.15 333.07
  Q 120.06 333.13 119.36 332.55
  Q 119.25 332.47 119.17 332.36
  Q 119.05 332.21 119.20 332.08
  Q 119.78 331.58 119.86 330.85
  A 1.08 1.08 0.0 0 1 120.17 330.20
  L 122.63 327.76
  Q 122.92 327.46 122.91 327.05
  Q 122.90 326.92 122.87 326.79
  Q 122.80 326.50 123.02 326.29
  L 124.70 324.73
  A 0.58 0.55 -22.5 0 0 124.88 324.32
  L 124.88 323.72
  Q 124.88 323.46 125.07 323.28
  L 127.69 320.71
  A 0.76 0.73 -22.2 0 0 127.91 320.21
  Q 127.92 320.02 127.87 319.81
  Q 127.80 319.50 128.03 319.29
  L 129.70 317.73
  A 0.58 0.55 -22.5 0 0 129.88 317.32
  L 129.88 316.71
  Q 129.88 316.45 130.07 316.27
  L 132.71 313.71
  A 0.68 0.65 -19.3 0 0 132.90 313.33
  Q 132.94 313.08 132.87 312.84
  Q 132.78 312.52 133.03 312.29
  L 134.70 310.73
  A 0.58 0.57 68.6 0 0 134.88 310.31
  L 134.88 309.72
  Q 134.88 309.46 135.07 309.28
  L 137.67 306.72
  A 0.70 0.67 69.1 0 0 137.88 306.22
  L 137.88 305.69
  Q 137.88 305.42 138.08 305.24
  L 139.70 303.73
  A 0.58 0.55 -22.5 0 0 139.88 303.32
  L 139.88 302.71
  Q 139.88 302.45 140.07 302.27
  L 142.70 299.71
  A 0.66 0.60 -17.8 0 0 142.89 299.38
  Q 142.96 299.09 142.88 298.83
  Q 142.78 298.51 143.03 298.29
  L 144.70 296.73
  A 0.58 0.57 68.6 0 0 144.88 296.31
  L 144.88 295.71
  Q 144.88 295.45 145.07 295.27
  L 147.71 292.71
  A 0.74 0.71 73.7 0 0 147.91 292.32
  Q 147.95 292.07 147.88 291.83
  Q 147.78 291.51 148.03 291.29
  L 149.70 289.73
  A 0.58 0.57 68.6 0 0 149.88 289.31
  L 149.88 288.72
  Q 149.88 288.46 150.07 288.28
  L 152.68 285.72
  Q 152.92 285.48 152.90 285.15
  Q 152.89 284.99 152.87 284.82
  Q 152.83 284.51 153.05 284.29
  L 154.51 282.85
  Q 154.88 282.48 154.88 281.96
  L 154.88 281.55
  Q 154.88 281.23 155.20 281.21
  Q 156.48 281.13 156.70 279.26
  Q 156.79 278.57 157.28 278.09
  L 159.71 275.66
  Q 159.93 275.44 159.91 275.13
  Q 159.90 274.98 159.86 274.82
  Q 159.79 274.52 160.02 274.30
  L 161.63 272.78
  Q 161.88 272.54 161.88 272.18
  L 161.88 271.72
  Q 161.88 271.46 162.07 271.28
  L 164.69 268.70
  A 0.71 0.70 -22.2 0 0 164.91 268.19
  Q 164.92 268.00 164.87 267.81
  Q 164.80 267.51 165.02 267.30
  L 166.63 265.78
  Q 166.88 265.53 166.88 265.18
  L 166.88 264.72
  Q 166.88 264.46 167.07 264.28
  L 169.55 261.85
  Q 169.79 261.60 169.85 261.26
  Q 170.09 259.80 171.80 258.65
  Q 172.61 258.11 173.16 258.91
  Q 173.44 259.31 173.83 259.01
  Q 174.22 258.71 174.63 258.97
  Q 174.93 259.16 175.15 258.88
  Q 175.41 258.55 176.37 258.19
  Z"
/>
<path fill="#e5acb5" d="
  M 131.72 391.47
  Q 131.32 390.74 131.43 389.98
  Q 131.51 389.50 131.25 389.09
  Q 130.22 387.48 130.17 385.63
  Q 130.05 381.01 130.10 376.37
  Q 130.11 375.35 129.37 376.05
  Q 128.96 376.44 128.95 377.00
  Q 128.94 377.48 128.60 377.81
  L 127.11 379.26
  A 0.75 0.72 -28.0 0 0 126.89 379.92
  Q 126.92 380.07 126.92 380.21
  A 0.67 0.65 67.2 0 1 126.73 380.70
  L 124.06 383.29
  Q 123.84 383.51 123.89 383.81
  Q 123.91 384.01 123.92 384.21
  A 0.72 0.71 67.4 0 1 123.70 384.75
  L 122.03 386.30
  Q 121.81 386.50 121.88 386.80
  Q 121.91 386.96 121.92 387.13
  Q 121.93 387.48 121.68 387.73
  L 119.08 390.29
  Q 118.90 390.46 118.90 390.72
  L 118.90 391.16
  Q 118.90 391.52 118.65 391.76
  L 117.07 393.30
  Q 116.83 393.53 116.90 393.84
  Q 116.93 394.00 116.92 394.17
  Q 116.89 394.51 116.65 394.75
  L 114.18 397.21
  Q 113.85 397.54 113.91 398.00
  Q 113.96 398.29 113.85 398.55
  Q 113.70 398.89 113.37 399.05
  Q 112.01 399.73 111.92 401.09
  Q 111.89 401.54 111.57 401.87
  Q 110.51 402.91 109.44 403.79
  Q 108.86 404.27 108.91 405.02
  Q 108.93 405.50 108.59 405.83
  L 107.06 407.28
  Q 106.90 407.43 106.91 407.65
  Q 106.91 407.78 106.92 407.92
  Q 106.96 408.42 106.60 408.79
  L 104.25 411.16
  A 1.06 1.04 71.0 0 0 103.95 411.79
  Q 103.81 413.02 102.55 413.82
  A 1.51 1.46 -7.1 0 0 101.93 414.59
  Q 101.43 416.08 102.24 417.24
  Q 78.73 400.03 55.25 382.77
  Q 50.16 379.03 50.14 373.00
  Q 50.05 336.13 50.11 298.15
  Q 50.11 297.46 50.66 297.87
  L 131.30 356.92
  A 1.06 1.03 -72.5 0 1 131.73 357.77
  L 131.72 391.47
  Z"
/>
<path fill="#7c8de2" d="
  M 448.90 374.50
  C 448.91 378.02 445.83 381.28 443.07 383.30
  Q 405.43 410.89 368.00 438.35
  A 0.47 0.46 -18.2 0 1 367.26 437.98
  L 367.25 357.78
  A 1.03 1.00 72.4 0 1 367.66 356.96
  L 448.35 297.85
  Q 448.93 297.43 448.93 298.15
  Q 448.88 336.56 448.90 374.50
  Z"
/>
<path fill="#d687d1" d="
  M 144.11 356.91
  L 224.47 297.98
  Q 225.03 297.57 225.03 298.26
  Q 225.03 336.92 225.01 373.86
  C 225.01 378.50 222.73 380.89 218.97 383.65
  Q 182.07 410.73 144.35 438.38
  Q 143.93 438.68 143.80 438.18
  Q 143.67 437.65 143.67 437.09
  Q 143.76 397.19 143.69 357.73
  A 1.01 1.00 72.4 0 1 144.11 356.91
  Z"
/>
<path fill="#b6b4ba" d="
  M 341.26 346.95
  L 336.44 351.81
  Q 336.07 352.18 335.99 352.70
  Q 335.77 354.13 334.22 355.02
  Q 333.88 355.22 333.88 355.61
  L 333.88 355.97
  Q 333.88 356.48 333.51 356.85
  L 332.05 358.29
  Q 331.82 358.51 331.87 358.83
  Q 331.89 358.98 331.90 359.13
  Q 331.92 359.48 331.67 359.72
  L 329.07 362.28
  Q 328.88 362.46 328.88 362.72
  L 328.88 363.22
  A 0.71 0.70 -22.2 0 1 328.66 363.73
  L 327.15 365.20
  Q 326.80 365.54 327.15 365.89
  L 327.40 366.14
  Q 327.90 366.65 327.22 366.86
  Q 327.08 366.91 326.92 366.90
  Q 326.52 366.87 326.22 367.16
  L 324.07 369.28
  Q 323.88 369.47 323.88 369.73
  L 323.88 370.22
  A 0.71 0.70 -22.2 0 1 323.66 370.73
  L 322.15 372.20
  Q 321.80 372.54 322.15 372.89
  L 322.39 373.14
  Q 322.91 373.65 322.21 373.87
  Q 322.07 373.91 321.93 373.90
  Q 321.52 373.87 321.22 374.16
  L 319.05 376.30
  Q 318.81 376.53 318.88 376.86
  Q 318.93 377.04 318.89 377.23
  Q 318.84 377.52 318.64 377.72
  L 317.10 379.32
  A 0.37 0.37 0.0 0 0 317.11 379.85
  L 317.39 380.13
  Q 317.93 380.67 317.19 380.85
  Q 314.80 381.44 314.87 384.05
  Q 314.88 384.33 314.69 384.55
  L 312.94 386.55
  A 0.55 0.41 -22.7 0 0 312.84 386.72
  Q 312.20 388.65 310.34 389.95
  Q 309.68 390.42 309.88 391.21
  Q 309.99 391.64 309.61 391.88
  Q 308.22 392.75 307.71 394.12
  C 307.25 395.36 306.23 396.22 305.27 397.05
  Q 305.02 397.26 304.92 397.58
  Q 304.85 397.79 304.88 398.02
  Q 304.94 398.46 304.65 398.78
  Q 303.88 399.65 304.14 401.28
  Q 291.33 391.98 278.64 382.61
  C 275.36 380.19 273.94 377.36 273.94 373.23
  Q 273.95 334.54 274.01 298.37
  Q 274.01 297.75 274.51 298.11
  L 341.26 346.95
  Z"
/>
<path fill="#9ba2cd" d="
  M 341.26 346.95
  L 354.80 356.85
  Q 355.27 357.19 355.27 357.78
  L 355.26 437.97
  Q 355.26 438.65 354.71 438.25
  L 304.14 401.28
  Q 303.88 399.65 304.65 398.78
  Q 304.94 398.46 304.88 398.02
  Q 304.85 397.79 304.92 397.58
  Q 305.02 397.26 305.27 397.05
  C 306.23 396.22 307.25 395.36 307.71 394.12
  Q 308.22 392.75 309.61 391.88
  Q 309.99 391.64 309.88 391.21
  Q 309.68 390.42 310.34 389.95
  Q 312.20 388.65 312.84 386.72
  A 0.55 0.41 -22.7 0 1 312.94 386.55
  L 314.69 384.55
  Q 314.88 384.33 314.87 384.05
  Q 314.80 381.44 317.19 380.85
  Q 317.93 380.67 317.39 380.13
  L 317.11 379.85
  A 0.37 0.37 0.0 0 1 317.10 379.32
  L 318.64 377.72
  Q 318.84 377.52 318.89 377.23
  Q 318.93 377.04 318.88 376.86
  Q 318.81 376.53 319.05 376.30
  L 321.22 374.16
  Q 321.52 373.87 321.93 373.90
  Q 322.07 373.91 322.21 373.87
  Q 322.91 373.65 322.39 373.14
  L 322.15 372.89
  Q 321.80 372.54 322.15 372.20
  L 323.66 370.73
  A 0.71 0.70 -22.2 0 0 323.88 370.22
  L 323.88 369.73
  Q 323.88 369.47 324.07 369.28
  L 326.22 367.16
  Q 326.52 366.87 326.92 366.90
  Q 327.08 366.91 327.22 366.86
  Q 327.90 366.65 327.40 366.14
  L 327.15 365.89
  Q 326.80 365.54 327.15 365.20
  L 328.66 363.73
  A 0.71 0.70 -22.2 0 0 328.88 363.22
  L 328.88 362.72
  Q 328.88 362.46 329.07 362.28
  L 331.67 359.72
  Q 331.92 359.48 331.90 359.13
  Q 331.89 358.98 331.87 358.83
  Q 331.82 358.51 332.05 358.29
  L 333.51 356.85
  Q 333.88 356.48 333.88 355.97
  L 333.88 355.61
  Q 333.88 355.22 334.22 355.02
  Q 335.77 354.13 335.99 352.70
  Q 336.07 352.18 336.44 351.81
  L 341.26 346.95
  Z"
/>
<path fill="#d687d1" d="
  M 131.72 391.47
  L 131.73 437.94
  A 0.50 0.50 0.0 0 1 130.94 438.34
  L 102.24 417.24
  Q 101.43 416.08 101.93 414.59
  A 1.51 1.46 -7.1 0 1 102.55 413.82
  Q 103.81 413.02 103.95 411.79
  A 1.06 1.04 71.0 0 1 104.25 411.16
  L 106.60 408.79
  Q 106.96 408.42 106.92 407.92
  Q 106.91 407.78 106.91 407.65
  Q 106.90 407.43 107.06 407.28
  L 108.59 405.83
  Q 108.93 405.50 108.91 405.02
  Q 108.86 404.27 109.44 403.79
  Q 110.51 402.91 111.57 401.87
  Q 111.89 401.54 111.92 401.09
  Q 112.01 399.73 113.37 399.05
  Q 113.70 398.89 113.85 398.55
  Q 113.96 398.29 113.91 398.00
  Q 113.85 397.54 114.18 397.21
  L 116.65 394.75
  Q 116.89 394.51 116.92 394.17
  Q 116.93 394.00 116.90 393.84
  Q 116.83 393.53 117.07 393.30
  L 118.65 391.76
  Q 118.90 391.52 118.90 391.16
  L 118.90 390.72
  Q 118.90 390.46 119.08 390.29
  L 121.68 387.73
  Q 121.93 387.48 121.92 387.13
  Q 121.91 386.96 121.88 386.80
  Q 121.81 386.50 122.03 386.30
  L 123.70 384.75
  A 0.72 0.71 67.4 0 0 123.92 384.21
  Q 123.91 384.01 123.89 383.81
  Q 123.84 383.51 124.06 383.29
  L 126.73 380.70
  A 0.67 0.65 67.2 0 0 126.92 380.21
  Q 126.92 380.07 126.89 379.92
  A 0.75 0.72 -28.0 0 1 127.11 379.26
  L 128.60 377.81
  Q 128.94 377.48 128.95 377.00
  Q 128.96 376.44 129.37 376.05
  Q 130.11 375.35 130.10 376.37
  Q 130.05 381.01 130.17 385.63
  Q 130.22 387.48 131.25 389.09
  Q 131.51 389.50 131.43 389.98
  Q 131.32 390.74 131.72 391.47
  Z"
/>
</svg>
