<?xml version="1.0" encoding="utf-8"?>
<!-- Generator: Adobe Illustrator 27.5.0, SVG Export Plug-In . SVG Version: 6.00 Build 0)  -->
<svg version="1.1" id="_x2018_лой_x5F_1" xmlns="http://www.w3.org/2000/svg" xmlns:xlink="http://www.w3.org/1999/xlink"
	 x="0px" y="0px" viewBox="0 0 3000 2000" style="enable-background:new 0 0 3000 2000;" xml:space="preserve">
<g>
	<path style="fill:#EBF3FA;" d="M2705.399,1588.297l-2403.821-3.372C294.126,1565.873,43.921,744.188,428.283,480.9
		c0.742-0.506,1.483-1.012,2.226-1.517c5.046-3.406,10.081-6.767,15.106-10.048C693.56,306.708,906.428,284.6,1083.261,320.353
		h0.011c5.811,1.169,11.588,2.405,17.32,3.709c260.603,58.952,440.718,240.956,537.188,270.605
		c413.775,127.166,572.198-167.055,895.282-69.809C2897.89,634.669,2872.994,1313.173,2705.399,1588.297z"/>
	<g>
		<path style="fill:#F5F9FD;" d="M1083.261,320.353C906.428,284.6,693.56,306.708,445.614,469.335
			c-5.025,3.282-10.06,6.643-15.107,10.048c-0.742,0.505-1.483,1.011-2.225,1.517v354.229v4.934h654.99v-4.934V320.353H1083.261z"/>
		<g>
			<path style="fill:#DFEBFA;" d="M1023.286,513.6V410.32c-0.772-0.41-1.544-0.82-2.316-1.24h-14.918v-0.05h-86.795v0.05h-0.07
				v15.49h0.07v10.64h-0.07v15.48h0.07v10.69h-0.07v15.48h0.07v0.05l-9.194-0.05v-80.99h-97.392v10.26h-0.05v15.48h0.05v13.6h-0.05
				v15.48h0.05v10.69h-0.05v15.48h0.05v9.89h-0.05v15.48h0.05v9.88h-0.05v15.49h0.05v9.31h-0.05v9.83h0.05v1.07H702.888v88.6
				h-41.006v22.32h-44.224v-38.44h-79.546V515.87H525.67v-10.41h-1.774v10.41h-10.317v-0.02h-51.604v-10.39h-1.774v10.39h-13.445
				v52.51h-1.033l-17.375-0.08v266.84H401.94v23.74h681.321V513.6H1023.286z"/>
			<g>
				<rect x="812.692" y="395.873" style="fill:#EEF6FF;" width="62.329" height="20.626"/>
				<rect x="812.692" y="427.62" style="fill:#EEF6FF;" width="62.329" height="20.626"/>
				<rect x="812.692" y="460.03" style="fill:#EEF6FF;" width="62.329" height="20.625"/>
				<rect x="812.692" y="492.956" style="fill:#EEF6FF;" width="62.329" height="20.626"/>
				<rect x="812.692" y="524.725" style="fill:#EEF6FF;" width="62.329" height="20.626"/>
			</g>
			<g>
				<rect x="812.692" y="559.69" style="fill:#EEF6FF;" width="62.329" height="20.625"/>
				<rect x="812.692" y="591.437" style="fill:#EEF6FF;" width="62.329" height="20.626"/>
				<rect x="812.692" y="623.847" style="fill:#EEF6FF;" width="62.329" height="20.625"/>
				<rect x="812.692" y="656.773" style="fill:#EEF6FF;" width="62.329" height="20.626"/>
				<rect x="812.692" y="688.542" style="fill:#EEF6FF;" width="62.329" height="20.626"/>
			</g>
			<g>
				<rect x="919.38" y="409.398" style="fill:#EEF6FF;" width="62.329" height="20.626"/>
				<rect x="919.38" y="441.146" style="fill:#EEF6FF;" width="62.329" height="20.626"/>
				<rect x="919.38" y="473.556" style="fill:#EEF6FF;" width="62.329" height="20.626"/>
				<rect x="919.38" y="506.481" style="fill:#EEF6FF;" width="62.329" height="20.626"/>
				<rect x="919.38" y="538.251" style="fill:#EEF6FF;" width="62.329" height="20.626"/>
			</g>
			<g>
				<rect x="919.38" y="571.373" style="fill:#EEF6FF;" width="62.329" height="20.626"/>
				<rect x="919.38" y="603.12" style="fill:#EEF6FF;" width="62.329" height="20.625"/>
				<rect x="919.38" y="635.53" style="fill:#EEF6FF;" width="62.329" height="20.626"/>
				<rect x="919.38" y="668.456" style="fill:#EEF6FF;" width="62.329" height="20.625"/>
				<rect x="919.38" y="700.226" style="fill:#EEF6FF;" width="62.329" height="20.625"/>
			</g>
			<g>
				<rect x="919.38" y="736.661" style="fill:#EEF6FF;" width="62.329" height="20.626"/>
				<rect x="919.38" y="768.408" style="fill:#EEF6FF;" width="62.329" height="20.626"/>
				<rect x="919.38" y="800.818" style="fill:#EEF6FF;" width="62.329" height="20.626"/>
				<rect x="919.38" y="833.744" style="fill:#EEF6FF;" width="62.329" height="20.625"/>
			</g>
			<rect x="723.334" y="506.481" style="fill:#DFEBFA;" width="3.092" height="42.083"/>
			<rect x="775.441" y="470.342" style="fill:#DFEBFA;" width="4.81" height="81.497"/>
			<rect x="822.338" y="384.29" style="fill:#DFEBFA;" width="1.546" height="11.582"/>
			<rect x="895.456" y="384.29" style="fill:#DFEBFA;" width="1.546" height="11.582"/>
		</g>
		<rect x="401.94" y="835.12" style="fill:#CBDCF7;" width="705.22" height="23.74"/>
		<path style="fill:#CBDCF7;" d="M445.61,469.33v365.8h-17.33V480.9c0.74-0.51,1.49-1.01,2.23-1.52
			C435.55,475.98,440.59,472.62,445.61,469.33z"/>
		<path style="fill:#CBDCF7;" d="M1083.272,320.353c5.811,1.169,11.588,2.405,17.32,3.709v511.066h-17.32h-0.011V320.353H1083.272z"
			/>
	</g>
	<path style="fill:#2E3552;" d="M2794.967,1591.676H225.717c-1.595,0-2.9-1.305-2.9-2.9v-0.95c0-1.595,1.305-2.9,2.9-2.9h2569.25
		c1.595,0,2.9,1.306,2.9,2.9v0.95C2797.867,1590.371,2796.562,1591.676,2794.967,1591.676z"/>
	<g>
		<path style="fill:#8FADEF;" d="M2407.116,1284.669v7.615c0,2.667,0.863,4.844,1.917,4.844h277.914
			c1.053,0,1.917-2.177,1.917-4.844v-7.615c0-2.662-0.864-4.844-1.917-4.844h-277.914
			C2407.979,1279.825,2407.116,1282.007,2407.116,1284.669z"/>
		<path style="fill:#BBD0FF;" d="M2407.116,1284.669v7.615c0,2.667,0.792,4.844,1.759,4.844h220.634c0.967,0,1.76-2.177,1.76-4.844
			v-7.615c0-2.662-0.793-4.844-1.76-4.844h-220.634C2407.908,1279.825,2407.116,1282.007,2407.116,1284.669z"/>
		
			<rect x="2477.456" y="1297.13" transform="matrix(-1 -1.224647e-16 1.224647e-16 -1 5152.2139 2881.8369)" style="fill:#AEC3FF;" width="197.302" height="287.577"/>
		
			<rect x="2422.164" y="1297.13" transform="matrix(-1 -1.224647e-16 1.224647e-16 -1 5041.6309 2881.8369)" style="fill:#D2E0FF;" width="197.303" height="287.577"/>
		<g>
			<g>
				<path style="fill:#AEC3FF;" d="M2432.765,1305.254h176.098v263.576h-176.098V1305.254z M2606.961,1307.155h-172.295v259.772
					h172.295V1307.155z"/>
			</g>
			<g>
				<rect x="2433.715" y="1392.446" style="fill:#AEC3FF;" width="174.197" height="1.901"/>
			</g>
			<g>
				<rect x="2433.715" y="1481.339" style="fill:#AEC3FF;" width="174.197" height="1.901"/>
			</g>
			<path style="fill:#AEC3FF;" d="M2502.964,1322.252h32.324c1.568,0,2.852-1.283,2.852-2.852l0,0c0-1.569-1.283-2.853-2.852-2.853
				h-32.324c-1.569,0-2.853,1.283-2.853,2.853l0,0C2500.111,1320.969,2501.395,1322.252,2502.964,1322.252z"/>
			<path style="fill:#AEC3FF;" d="M2502.964,1409.18h32.324c1.568,0,2.852-1.284,2.852-2.853l0,0c0-1.568-1.283-2.853-2.852-2.853
				h-32.324c-1.569,0-2.853,1.284-2.853,2.853l0,0C2500.111,1407.896,2501.395,1409.18,2502.964,1409.18z"/>
			<path style="fill:#AEC3FF;" d="M2502.964,1499.795h32.324c1.568,0,2.852-1.283,2.852-2.853l0,0c0-1.568-1.283-2.852-2.852-2.852
				h-32.324c-1.569,0-2.853,1.283-2.853,2.852l0,0C2500.111,1498.512,2501.395,1499.795,2502.964,1499.795z"/>
		</g>
	</g>
	<g>
		<path style="fill:#C0D8FB;" d="M2546.48,734.098h-104.252c-4.785,0-8.701-3.916-8.701-8.702v-100.62
			c0-4.786,3.916-8.702,8.701-8.702h104.252c4.785,0,8.701,3.916,8.701,8.702v100.62
			C2555.182,730.182,2551.266,734.098,2546.48,734.098z"/>
		<path style="fill:#DFEBFD;" d="M2541.964,728.985h-95.219c-4.371,0-7.947-3.577-7.947-7.948v-91.902
			c0-4.371,3.576-7.947,7.947-7.947h95.219c4.371,0,7.947,3.576,7.947,7.947v91.902
			C2549.911,725.408,2546.335,728.985,2541.964,728.985z"/>
		<g>
			<g>
				<path style="fill:#B7D3F3;" d="M2491.834,631.959c0-1.392,1.129-2.52,2.521-2.52s2.52,1.128,2.52,2.52s-1.128,2.52-2.52,2.52
					S2491.834,633.351,2491.834,631.959z"/>
				<path style="fill:#B7D3F3;" d="M2512.168,635.521c0.677-1.217,2.211-1.655,3.428-0.979c1.217,0.676,1.654,2.21,0.979,3.427
					c-0.676,1.216-2.211,1.654-3.427,0.979C2511.931,638.271,2511.492,636.737,2512.168,635.521z"/>
				<path style="fill:#B7D3F3;" d="M2529.59,649.361c1.169-0.755,2.729-0.418,3.483,0.751c0.755,1.169,0.418,2.729-0.752,3.483
					c-1.169,0.755-2.729,0.418-3.483-0.751C2528.084,651.675,2528.42,650.116,2529.59,649.361z"/>
				<path style="fill:#B7D3F3;" d="M2538.219,670.783c1.392,0,2.52,1.128,2.52,2.52c0,1.392-1.128,2.52-2.52,2.52
					c-1.393,0-2.521-1.128-2.521-2.52C2535.698,671.911,2536.826,670.783,2538.219,670.783z"/>
				<path style="fill:#B7D3F3;" d="M2533.813,695.644c0.984,0.984,0.984,2.579,0,3.563c-0.984,0.984-2.58,0.984-3.563,0
					c-0.984-0.984-0.984-2.58,0-3.563C2531.232,694.659,2532.828,694.659,2533.813,695.644z"/>
				<path style="fill:#B7D3F3;" d="M2517.988,711.509c0.984,0.984,0.984,2.58,0,3.564c-0.984,0.984-2.58,0.984-3.564,0
					c-0.984-0.984-0.984-2.58,0-3.564C2515.408,710.525,2517.004,710.525,2517.988,711.509z"/>
				<path style="fill:#B7D3F3;" d="M2491.834,719.687c0-1.392,1.129-2.52,2.521-2.52s2.52,1.128,2.52,2.52
					c0,1.392-1.128,2.52-2.52,2.52S2491.834,721.079,2491.834,719.687z"/>
			</g>
			<g>
				<path style="fill:#B7D3F3;" d="M2476.46,635.521c-0.676-1.217-2.21-1.655-3.427-0.979c-1.217,0.676-1.654,2.21-0.979,3.427
					c0.676,1.216,2.21,1.654,3.427,0.979C2476.698,638.271,2477.136,636.737,2476.46,635.521z"/>
				<path style="fill:#B7D3F3;" d="M2459.039,649.361c-1.17-0.755-2.729-0.418-3.483,0.751c-0.755,1.169-0.418,2.729,0.751,3.483
					c1.17,0.755,2.729,0.418,3.484-0.751C2460.545,651.675,2460.209,650.116,2459.039,649.361z"/>
				<path style="fill:#B7D3F3;" d="M2450.41,670.783c-1.392,0-2.521,1.128-2.521,2.52c0,1.392,1.129,2.52,2.521,2.52
					s2.52-1.128,2.52-2.52C2452.93,671.911,2451.802,670.783,2450.41,670.783z"/>
				<path style="fill:#B7D3F3;" d="M2454.816,695.644c-0.984,0.984-0.984,2.579,0,3.563c0.983,0.984,2.579,0.984,3.563,0
					c0.984-0.984,0.984-2.58,0-3.563C2457.396,694.659,2455.8,694.659,2454.816,695.644z"/>
				<path style="fill:#B7D3F3;" d="M2470.641,711.509c-0.984,0.984-0.984,2.58,0,3.564c0.984,0.984,2.58,0.984,3.563,0
					c0.984-0.984,0.984-2.58,0-3.564C2473.221,710.525,2471.625,710.525,2470.641,711.509z"/>
			</g>
		</g>
		<g>
			<path style="fill:#B7D3F3;" d="M2493.675,673.303c0-1.392,1.128-2.52,2.521-2.52c1.392,0,2.52,1.128,2.52,2.52
				c0,1.392-1.128,2.52-2.52,2.52C2494.803,675.823,2493.675,674.695,2493.675,673.303z"/>
			<g>
				<rect x="2495.852" y="641.821" style="fill:#B7D3F3;" width="0.688" height="31.481"/>
			</g>
			<g>
				
					<rect x="2493.614" y="665.675" transform="matrix(0.7867 -0.6173 0.6173 0.7867 122.5771 1688.1744)" style="fill:#B7D3F3;" width="21.218" height="2.064"/>
			</g>
		</g>
	</g>
	<g>
		<path style="fill:#D2E0FF;" d="M1471.247,1264.074H949.666l-228.475-226.132c-14.672-14.521-12.967-38.7,3.599-51.018
			l11.602-8.627l462.24,6.865L1471.247,1264.074z"/>
		<path style="fill:#AEC3FF;" d="M953.29,1269.978l-43.089,32.042L713.054,1036.9c-10.908-14.669-7.859-35.404,6.81-46.312
			l16.528-12.291L953.29,1269.978z"/>
		<path style="fill:#AEC3FF;" d="M721.775,1302.02h1282.044c15.726,0,28.474-12.748,28.474-28.473l0,0
			c0-15.726-12.748-28.473-28.474-28.473H721.775c-15.725,0-28.473,12.747-28.473,28.473l0,0
			C693.303,1289.271,706.05,1302.02,721.775,1302.02z"/>
		<rect x="910.201" y="1302.02" style="fill:#AEC3FF;" width="20.489" height="259.453"/>
		<rect x="2271.047" y="1302.02" style="fill:#AEC3FF;" width="20.488" height="259.453"/>
		<rect x="1960.193" y="1302.02" style="fill:#AEC3FF;" width="20.488" height="259.453"/>
		<rect x="1271.459" y="1302.02" style="fill:#AEC3FF;" width="20.489" height="259.453"/>
		<rect x="910.201" y="1467.579" style="fill:#AEC3FF;" width="947.629" height="21.685"/>
		<rect x="1837.341" y="1467.579" style="fill:#AEC3FF;" width="454.194" height="21.685"/>
		<g>
			
				<ellipse transform="matrix(0.9216 -0.3882 0.3882 0.9216 -533.9348 479.7173)" style="fill:#2B478B;" cx="920.446" cy="1561.473" rx="23.234" ry="23.234"/>
			
				<ellipse transform="matrix(0.0263 -0.9997 0.9997 0.0263 -664.6681 2440.5811)" style="fill:#AEC3FF;" cx="920.446" cy="1561.473" rx="12.955" ry="12.955"/>
		</g>
		<g>
			<path style="fill:#2B478B;" d="M1258.469,1561.473c0-12.832,10.402-23.234,23.234-23.234s23.234,10.402,23.234,23.234
				s-10.402,23.234-23.234,23.234S1258.469,1574.305,1258.469,1561.473z"/>
			
				<ellipse transform="matrix(0.0263 -0.9997 0.9997 0.0263 -312.9234 2801.6848)" style="fill:#AEC3FF;" cx="1281.703" cy="1561.473" rx="12.955" ry="12.955"/>
		</g>
		<g>
			
				<ellipse transform="matrix(0.9239 -0.3827 0.3827 0.9239 -447.5589 872.9131)" style="fill:#2B478B;" cx="1970.438" cy="1561.473" rx="23.234" ry="23.234"/>
			<path style="fill:#AEC3FF;" d="M1957.482,1561.473c0-7.155,5.801-12.955,12.955-12.955s12.954,5.8,12.954,12.955
				c0,7.154-5.8,12.955-12.954,12.955S1957.482,1568.627,1957.482,1561.473z"/>
		</g>
		<polygon style="fill:#AEC3FF;" points="740.171,1022.791 740.171,1257.525 768.935,1257.525 768.935,1054.933 		"/>
		<polygon style="fill:#FFB27D;" points="1172.274,1036.374 1281.481,1077.677 1222.748,1087.057 1182.302,1059.801 		"/>
		<path style="fill:#F99746;" d="M1367.86,1248.408c4.243,1.623,68.855-91.527,60.819-117.536
			c-0.392-1.267-139.211-28.119-162.237-34.634c-50.825-14.396-108.206-65.768-136.908-70.604
			c-59.466-10.019-158.024,49.262-142.339,100.404c23.639,77.078,68.372,122.391,143.394,121.693
			C1133.262,1247.707,1363.184,1246.717,1367.86,1248.408z"/>
		<g>
			<path style="fill:#FFB27D;" d="M1076.832,1070.966c8.405-4.085,16.879-10.361,20.419-19.107
				c3.351-8.279-1.74-16.583-10.002-18.161c-3.556-0.679-10.954-8.348-14.452-11.806c-12.657-12.507-20.604-18.657-20.604-18.657
				l-56.059,1.166c6.9,1.742,22.924,36.891,26.164,56.825C1025.13,1078.646,1060.77,1078.773,1076.832,1070.966z"/>
			<path style="fill:#E8945B;" d="M1072.797,1021.892c-8.433-13.982-13.841-22.208-13.841-22.208l-51.094,16.626
				C1021.974,1026.526,1040.901,1033.286,1072.797,1021.892z"/>
			<g>
				<path style="fill:#FFB27D;" d="M1075.642,1009.525c0,0-61.366,31.395-80.329-7.123c-18.962-38.517-39.653-60.405-1.274-82.078
					c38.379-21.672,53.286-10.751,62.742,0.565C1066.237,932.206,1091.116,1000.367,1075.642,1009.525z"/>
				<path style="fill:#2C3A64;" d="M1003.859,988.199c0,0-11.371-5.954-8.161-13.006c3.21-7.052,8.734,0.378,12.562-1.128
					c3.828-1.506,7.214-15.218,4.415-25.813c-2.799-10.594,39.897-6.661,53.441-16.429c13.544-9.768,20.362-34.204-6.744-37.572
					c-15.929-1.98-95.872-12.846-111.578,29.003c-20.019,53.347,39.08,83.749,47.234,88.618c8.155,4.869,10.945,1.776,10.945,1.776
					S1011.994,995.96,1003.859,988.199z"/>
			</g>
		</g>
		<path style="fill:#F99746;" d="M1114.59,1024.526c0,0,30.194-4.827,82.47,14.552c0,0-3.605,15.076-19.829,23.987
			C1161.008,1071.976,1114.59,1024.526,1114.59,1024.526z"/>
		<path style="fill:#2B478B;" d="M1836.841,1144.433c0,0-268.515,3.182-393.083-34.638s-225.831-35.35-225.831-35.35
			s-81.621,84.738-101.452,162.334c-1.256,4.916-1.884,9.968-1.884,15.041v90.551c0,0,151.063-37.075,331.839,0
			c138.997,28.506,380.426,0,380.426,0L1836.841,1144.433z"/>
		<path style="fill:#FFB27D;" d="M1016.768,1175.681c0,0,155.102,56.146,186.602,50.42s114.515-95.019,114.515-95.019l-15.82-11.337
			l-107.257,58.586c0,0-98.417-52.197-140.679-78.808C1031.37,1085.193,1004.272,1170.507,1016.768,1175.681z"/>
		<path style="fill:#F99746;" d="M1121.728,1138.185c-8.11,28.831-23.054,54.236-58.783,74.673
			c-5.843,3.342-10.519,8.337-15.245,3.823c-16.911-16.151-51.821-51.422-60.504-90.642c-0.815-3.683,3.361-10.979,6.067-13.631
			c10.248-10.037,37.342-29.978,59.675-24.378c19.862,4.979,51.121,23.3,67.779,33.64
			C1126.249,1125.103,1123.633,1131.41,1121.728,1138.185z"/>
		<path style="fill:#FFB27D;" d="M1302.064,1119.745c0,0,6.478-16.505,8.168-20.729c1.69-4.226,14.534-14.961,15.041-11.959
			c0.507,3.002-4.394,9.643-2.535,9.871c1.859,0.229,9.633-13.967,14.872-13.799c5.239,0.17,2.366,18.385,0.507,26.666
			s-20.232,21.287-20.232,21.287L1302.064,1119.745z"/>
		<path style="fill:#AEC3FF;" d="M2293.227,1302.02h-488.392c-5.976,0-10.864-4.889-10.864-10.864v-205.879
			c0-5.976,4.889-10.864,10.864-10.864h488.392c5.976,0,10.864,4.889,10.864,10.864v205.879
			C2304.091,1297.131,2299.202,1302.02,2293.227,1302.02z"/>
	</g>
	<g>
		<g>
			<rect x="362.201" y="1356.279" style="fill:#AEC3FF;" width="12.177" height="195.815"/>
			
				<rect x="491.145" y="1366.645" transform="matrix(-1.836970e-16 1 -1 -1.836970e-16 1998.9092 1004.4434)" style="fill:#AEC3FF;" width="12.177" height="270.063"/>
			<rect x="620.088" y="1356.279" style="fill:#AEC3FF;" width="12.177" height="195.815"/>
			<rect x="529.98" y="1356.279" style="fill:#AEC3FF;" width="12.177" height="195.815"/>
			<g>
				<path style="fill:#2B478B;" d="M347.363,1563.999c0-11.558,9.369-20.927,20.926-20.927c11.557,0,20.926,9.369,20.926,20.927
					s-9.369,20.926-20.926,20.926C356.732,1584.925,347.363,1575.557,347.363,1563.999z"/>
				<path style="fill:#AEC3FF;" d="M356.622,1563.999c0-6.444,5.224-11.668,11.667-11.668c6.444,0,11.668,5.224,11.668,11.668
					c0,6.443-5.224,11.668-11.668,11.668C361.846,1575.667,356.622,1570.442,356.622,1563.999z"/>
			</g>
			<g>
				<path style="fill:#2B478B;" d="M515.143,1563.999c0-11.558,9.369-20.927,20.926-20.927c11.557,0,20.926,9.369,20.926,20.927
					s-9.369,20.926-20.926,20.926C524.512,1584.925,515.143,1575.557,515.143,1563.999z"/>
				<path style="fill:#AEC3FF;" d="M524.401,1563.999c0-6.444,5.224-11.668,11.667-11.668c6.444,0,11.668,5.224,11.668,11.668
					c0,6.443-5.224,11.668-11.668,11.668C529.625,1575.667,524.401,1570.442,524.401,1563.999z"/>
			</g>
			<g>
				<path style="fill:#2B478B;" d="M605.25,1563.999c0-11.558,9.369-20.927,20.926-20.927c11.557,0,20.926,9.369,20.926,20.927
					s-9.369,20.926-20.926,20.926C614.619,1584.925,605.25,1575.557,605.25,1563.999z"/>
				<path style="fill:#AEC3FF;" d="M614.509,1563.999c0-6.444,5.224-11.668,11.667-11.668c6.444,0,11.668,5.224,11.668,11.668
					c0,6.443-5.224,11.668-11.668,11.668C619.732,1575.667,614.509,1570.442,614.509,1563.999z"/>
			</g>
			<rect x="452.179" y="1252.072" style="fill:#94B0ED;" width="179.956" height="132.701"/>
			<rect x="362.201" y="1252.072" style="fill:#AEC3FF;" width="179.956" height="132.701"/>
		</g>
		<g>
			<path style="fill:#C8DBF4;" d="M443.55,1201.639v50.434H392.7v-50.594c0-0.491,0.021-0.971,0.075-1.451
				c0.533-5.792,4.256-10.656,9.387-12.832c3.659-1.547,6.23-4.896,6.433-8.865l0.373-7.285h18.668l0.117,7.265
				c0.075,3.957,2.581,7.36,6.229,8.896c5.152,2.177,8.897,7.041,9.483,12.822C443.518,1200.561,443.55,1201.094,443.55,1201.639z"
				/>
			<polygon style="fill:#B7D3F3;" points="428.968,1174.245 407.189,1174.245 407.768,1168.557 428.391,1168.557 			"/>
			<path style="fill:#FFFFFF;" d="M443.55,1201.639v32.523H392.7v-32.684c0-0.491,0.021-0.971,0.075-1.451h50.69
				C443.518,1200.561,443.55,1201.094,443.55,1201.639z"/>
		</g>
		<g>
			<path style="fill:#C8DBF4;" d="M485.324,1223.861v28.211H456.88v-28.301c0-0.274,0.012-0.543,0.041-0.812
				c0.299-3.239,2.381-5.961,5.251-7.178c2.047-0.865,3.485-2.739,3.598-4.958l0.208-4.076h10.442l0.066,4.063
				c0.042,2.214,1.444,4.117,3.484,4.977c2.882,1.217,4.977,3.938,5.305,7.172C485.306,1223.259,485.324,1223.557,485.324,1223.861z
				"/>
			<polygon style="fill:#B7D3F3;" points="477.167,1208.538 464.985,1208.538 465.309,1205.356 476.844,1205.356 			"/>
			<path style="fill:#FFFFFF;" d="M485.324,1223.861v18.192H456.88v-18.282c0-0.274,0.012-0.543,0.041-0.812h28.355
				C485.306,1223.259,485.324,1223.557,485.324,1223.861z"/>
		</g>
	</g>
	<g>
		<g>
			<path style="fill:#AEC3FF;" d="M2564.099,1164.303c0,0-18.482-21.563-1.14-35.258c0,0,12.667-7.67,22.996-7.047
				c0,0-14.636,24.543-9.9,26.984c4.734,2.441,14.337-28.523,14.337-28.523s28.827-2.796,38.101,1.662
				c0,0-24.644,20.167-19.453,21.368c5.19,1.2,31.809-18.594,31.809-18.594s26.83,4.565,25.399,20.933s-10.675,21.422-14.738,20.986
				s-27.832-9.509-28.351-6.18c-0.518,3.33,13.791,14.21,23.81,14.719c0,0-18.916,20.861-31.487,14.841
				c-12.572-6.021-13.645-15.564-21.481-19.144s-14.526-3.57-11.291,0.08s17.418,7.198,21.899,15.126
				c4.482,7.927,8.503,13.273-4.504,11.316s-34.148-11.475-35.077-22.372C2564.099,1164.303,2564.099,1164.303,2564.099,1164.303z"
				/>
			<g>
				<path style="fill:#AEC3FF;" d="M2653.064,1146.27c0,0-72.873-2.808-88.966,18.033c0,0-3.56,10.659-14.511,20.365l-1.707,4.652
					c0,0,12.627-13.314,17.146-14.119C2565.026,1175.201,2557.96,1149.381,2653.064,1146.27z"/>
				<path style="fill:#AEC3FF;" d="M2549.588,1184.668c0,0-15.643,11.568-16.729,32.236l2.839,0.255c0,0,4.995-21.372,14.024-29.729
					S2549.588,1184.668,2549.588,1184.668z"/>
			</g>
		</g>
		<g>
			<path style="fill:#D4E4F8;" d="M2499.479,1137.186c0,0,29.4-16.464,15.68-38.809c0,0-10.977-13.72-22.736-17.248
				c0,0,6.272,33.32,0,34.104c-6.271,0.784-4.313-37.633-4.313-37.633s-30.968-14.896-43.12-13.72c0,0,19.208,32.536,12.937,31.752
				c-6.272-0.783-27.833-33.712-27.833-33.712s-31.753-5.88-36.849,12.936c-5.096,18.816,3.137,28.225,7.84,29.401
				c4.705,1.176,34.889,0.783,34.105,4.703c-0.784,3.92-21.169,10.192-32.537,6.664c0,0,12.545,30.969,29.009,29.401
				c16.464-1.568,21.561-11.761,31.753-12.545c10.191-0.784,17.64,1.96,12.544,4.704c-5.097,2.744-22.345,0.899-30.577,7.898
				c-8.231,6.998-14.896,11.311,0.393,14.446s42.729,1.176,48.217-10.584C2499.479,1137.186,2499.479,1137.186,2499.479,1137.186z"
				/>
			<g>
				<path style="fill:#D4E4F8;" d="M2407.749,1080.737c0,0,82.321,26.656,91.729,56.448c0,0-0.393,13.328,7.84,28.617v5.88
					c0,0-8.624-19.992-13.328-22.736C2493.99,1148.946,2512.414,1123.073,2407.749,1080.737z"/>
				<path style="fill:#D4E4F8;" d="M2507.318,1165.803c0,0,12.695,19.278,5.457,42.745l-3.266-0.877c0,0,3.171-25.848-3.472-38.848
					C2499.396,1155.823,2507.318,1165.803,2507.318,1165.803z"/>
			</g>
		</g>
		<g>
			<path style="fill:#D2E0FF;" d="M2546.252,1114.479c0,0-38.755-21.703-20.67-51.157c0,0,14.469-18.086,29.971-22.736
				c0,0-8.268,43.923,0,44.956c8.269,1.033,5.685-49.606,5.685-49.606s40.822-19.637,56.841-18.086c0,0-25.32,42.889-17.052,41.855
				c8.268-1.033,36.688-44.439,36.688-44.439s41.855-7.751,48.573,17.053c6.718,24.803-4.134,37.205-10.335,38.755
				c-6.201,1.551-45.989,1.034-44.956,6.201s27.903,13.435,42.889,8.784c0,0-16.535,40.822-38.238,38.756
				c-21.703-2.067-28.421-15.502-41.855-16.536c-13.436-1.033-23.253,2.584-16.536,6.201c6.718,3.617,29.455,1.186,40.306,10.411
				c10.852,9.225,19.636,14.909-0.517,19.043s-56.324,1.55-63.559-13.952S2546.252,1114.479,2546.252,1114.479z"/>
			<g>
				<path style="fill:#D4E4F8;" d="M2667.168,1040.069c0,0-108.515,35.138-120.916,74.41c0,0,0.517,17.569-10.335,37.722v7.751
					c0,0,11.368-26.354,17.569-29.971C2553.486,1129.981,2529.199,1095.877,2667.168,1040.069z"/>
				<path style="fill:#D4E4F8;" d="M2535.917,1152.201c0,0-16.734,25.412-7.194,56.347l4.306-1.156c0,0-4.179-34.072,4.576-51.208
					C2546.359,1139.047,2535.917,1152.201,2535.917,1152.201z"/>
			</g>
		</g>
		<path style="fill:#AEC3FF;" d="M2544.946,1275.63c41.927,0,75.915-33.988,75.915-75.915h-151.83
			C2469.031,1241.642,2503.02,1275.63,2544.946,1275.63z"/>
		<path style="fill:#AEC3FF;" d="M2621.91,1279.493h-153.928l0,0c0-5.173,4.193-9.366,9.366-9.366h135.195
			C2617.717,1270.127,2621.91,1274.32,2621.91,1279.493L2621.91,1279.493z"/>
		<rect x="2466.534" y="1199.715" style="fill:#BBD0FF;" width="156.054" height="2.328"/>
	</g>
	<g>
		<path style="fill:#ABDDDA;" d="M2215.616,776.547c0,0-42.16,7.402-51.691,32.287c-9.532,24.885-63.38,426.85-63.38,426.85
			s26.665,21.128,83.902,13.542C2241.686,1241.642,2215.616,776.547,2215.616,776.547z"/>
		<path style="fill:#233862;" d="M2152.861,1568.009c-0.145,7.197-1.05,14.01-3.661,16.698h-104.651
			c1.33-3.787,5.098-9.481,15.841-11.226c12.208-1.976,31.238-7.853,42.349-19.599c3.96-4.172,6.908-9.096,8.199-14.849
			c4.924-21.921,40.71,6.716,40.71,6.716S2153.093,1557.294,2152.861,1568.009z"/>
		<path style="fill:#233862;" d="M2314.207,1568.009c-0.145,7.197-1.051,14.01-3.661,16.698h-104.651
			c1.329-3.787,5.097-9.481,15.841-11.226c12.208-1.976,31.238-7.853,42.348-19.599c3.96-4.172,6.909-9.096,8.2-14.849
			c4.924-21.921,40.71,6.716,40.71,6.716S2314.438,1557.294,2314.207,1568.009z"/>
		<path style="fill:#93312C;" d="M2107.794,1557.351c11.696,3.729,34.048,15.119,48.247,9.762
			c9.176-3.458,60.47-151.834,63.797-216.733c0.245-4.719,1.173-11.303,2.626-19.331c3.038-16.747,8.353-39.764,14.472-65.161
			c16.416-68.051,38.617-153.183,38.136-180.393c-0.743-42.232-125.858-8.851-125.858-8.851s-8.605,34.643-10.322,84.799
			c-3.396,99.559-12.737,267.729-38.145,384.518C2099.67,1550.916,2102.943,1555.81,2107.794,1557.351z"/>
		<path style="fill:#B5453C;" d="M2194.631,1085.641l60.373,469.772c0,0,38.835,5.193,61.426-0.409
			c0,0,15.342-243.544,13.729-305.18c-1.613-61.637,13.897-164.928-3.54-176.319S2194.631,1085.641,2194.631,1085.641z"/>
		<path style="fill:#FFFFFF;" d="M2334.979,798.506c0,0-69.507-44.944-119.362-21.959c-7.944,3.663-17.007,13.883-23.495,21.032
			c-18.021,19.857-53.232,335.296-53.232,335.296s99.958,33.854,196.09-11.489V798.506z"/>
		<path style="fill:#ABDDDA;" d="M2211.661,775.407c0,0-70.366,28.838-79.897,50.996c-9.53,22.158-40.506,158.227-40.506,174.183
			c0,15.956,53.935,3.567,62.616-22.167c7.21-21.37,31.528-87.018,44.353-128.541L2211.661,775.407z"/>
		<g>
			<path style="fill:#FFB27D;" d="M2226.275,797.381c15.361,3.013,37.926-0.198,54.447-11.088
				c-7.458-17.816-10.516-31.882-11.604-40.984c-0.063-0.485-0.111-0.953-0.159-1.406c-0.492-4.718-0.421-7.918-0.19-9.388h-39.714
				c0,0-10.857,4.964-10.857,8.396c0,1.835-0.016,3.59-0.048,5.266c-0.079,4.567-0.262,8.554-0.5,11.978
				c-0.755,11.144-2.033,16.394-2.033,16.394S2210.764,794.339,2226.275,797.381z"/>
			<path style="fill:#E2915A;" d="M2217.649,760.153c30.087,5.814,47.554-10.627,51.469-14.845c0.556-0.604,0.843-0.961,0.843-0.961
				c-0.318-0.159-0.652-0.302-1.002-0.445c-11.199-4.535-36.615-0.929-50.81,4.273
				C2218.07,752.743,2217.888,756.73,2217.649,760.153z"/>
			<path style="fill:#FFB27D;" d="M2278.946,727.986c-5.376,28.937-42.714,27.986-58.85,26.167
				c-4.541-0.505-7.397-1.085-7.397-1.085c-5.12-1.368-7.977-9.432-9.305-19.996c-2.634-20.905,0.694-51.593,4.225-59.442
				c5.316-11.81,15.327-24.584,52.928-15.367C2298.154,667.486,2285.846,690.912,2278.946,727.986z"/>
			<path style="fill:#233862;" d="M2206.22,657.489c5.139-7.115,16.035-15.808,25.933-21.162
				c21.261-11.502,48.472,0.362,48.586,0.412c30.712,13.503,38.731,37,22.449,73.603c-17.218,38.705-33.612,34.35-33.612,34.35
				s3.479-2.165,3.165-14.228c-0.018-0.686-0.045-1.258-0.077-1.751c-0.158-2.472,0.714-4.951,2.562-6.6
				c3.814-3.405,5.675-13.702,2.479-16.569c-3.854-3.459-9.269,0.742-10.999,3.974c-1.51,2.281-4.219,3.081-6.739,1.487
				c-9.56-6.043-3.35-18.129-12.483-25.523c-9.135-7.395-27.669-1.186-41.371-7.079
				C2188.175,671.719,2202.348,662.851,2206.22,657.489z"/>
		</g>
		<path style="fill:#ABDDDA;" d="M2201.94,1265.217c6.053,1.558,12.042,2.836,17.999,3.821c5.266,0.897,10.508,1.564,15.758,2.009
			c29.746,2.59,59.627-1.596,94.551-11.612c7.863-2.255,15.988-4.813,24.424-7.648c0.897-0.302-2.295-92.652-5.98-187.91
			c-0.374-9.833-0.763-19.706-1.145-29.507c-0.166-4.154-0.325-8.284-0.492-12.406c-3.344-84.249-6.656-160.333-7.354-164.431
			c-1.597-9.269-3.09-17.172-4.718-24.019c-4.758-19.96-10.668-30.905-23.551-40.317c-1.255-0.953-11.557-6.147-20.644-10.667
			c-7.529-3.741-14.218-7.006-14.218-7.006c-0.008,0-0.008,0-0.008,0c-2.994,1.47-6.592,8.332-10.357,17.967
			c-6.918,17.76-14.384,44.956-19.578,65.266c-0.016,0.056-0.024,0.087-0.024,0.103c0,0.008,0,0.008,0,0.008
			c-3.344,13.113-5.742,23.328-6.425,26.258c-1.16,4.949-2.693,14.527-4.496,27.514c-2.446,17.673-5.369,41.66-8.459,68.88
			c-0.318,2.796-0.636,5.631-0.953,8.491c-0.365,3.265-0.738,6.568-1.104,9.905c-0.118,1.072-0.237,2.144-0.349,3.216
			c-1.191,10.778-2.392,21.906-3.583,33.217c-0.993,9.349-15.171,16.107-16.147,25.615c-0.563,5.583-1.742,57.099-3.26,73.54
			C2200.738,1147.241,2201.512,1259.697,2201.94,1265.217z"/>
		<path style="fill:#91CECF;" d="M2304.525,891.495c0.045,0.192,2.41,85.194-61.529,95.519
			c-63.939,10.325-21.456,13.055-21.456,13.055s120.302-5.113,122.288-8.29C2345.813,988.603,2304.525,891.495,2304.525,891.495z"/>
		<path style="fill:#91CECF;" d="M2250.503,1023.504c0,0,1.199,0.85,3.503,2.335c0.039,0.016,0.079,0.048,0.119,0.071
			c9.754,6.227,38.705,23.201,80.857,34.583c4.424,1.199,8.999,2.335,13.709,3.383c-0.374-9.833-0.763-19.706-1.145-29.507
			c5.568-0.437,10.898-1.144,15.846-2.192c-0.166-1.295-0.341-2.589-0.508-3.884c-5.361-2.2-10.691-4.321-15.83-6.33
			c-4.186-1.637-8.236-3.193-12.072-4.639c-17.315-6.577-30.151-11.033-30.151-11.033l-51.255,16.235L2250.503,1023.504z"/>
		<path style="fill:#ABDDDA;" d="M2236.937,1022.082c0,0,6.585,1.644,17.069,3.757c0.039,0,0.071,0.008,0.111,0.023
			c19.332,3.884,51.834,9.333,80.865,9.039c4.281-0.048,8.49-0.215,12.564-0.532c5.568-0.437,10.898-1.144,15.846-2.192
			c10.612-2.239,19.5-6.028,25.314-11.954c43.185-43.986-23.566-201.857-37.602-217.218c-16.386-17.935-46.29-24.225-62.803-26.386
			c-0.691-0.087-1.351-0.175-1.994-0.254c-5.807-0.691-9.531-0.834-9.738-0.842c-0.008,0-0.008,0-0.008,0s1.295,4.162,3.463,11.223
			c0.843,2.732,1.82,5.901,2.892,9.436c10.144,33.217,29.714,98.498,38.34,135.313c3.161,13.471,4.853,23.129,4.083,26.012
			c-3.368,12.574-38.261,19.039-60.365,21.898c-9.222,1.191-16.219,1.755-17.784,1.875c-0.11,0-0.214,0.008-0.325,0.024
			l-1.279,5.242l-3.058,12.573l-3.011,12.351L2236.937,1022.082z"/>
		<polygon style="fill:#233862;" points="2116.491,1097.755 2264.805,1091.507 2234.715,906.672 2086.401,912.921 		"/>
		<path style="fill:#FFB27D;" d="M2246.864,981.305c0,0-28.87-2.013-30.319,4.716c-3.375,15.688,24.821,28.568,33.955,27.688
			C2259.635,1012.828,2253.509,980.257,2246.864,981.305z"/>
		<path style="fill:#FFB27D;" d="M2094.51,950.455c0,0,27.622-8.637,30.588-2.425c6.912,14.481-17.54,33.535-26.63,34.791
			C2089.377,984.077,2087.803,950.973,2094.51,950.455z"/>
		<path style="fill:#91CECF;" d="M2273.567,766.241c0,0,13.702,2.376,19.791,11.113c0,0-46.956,82.24-46.754,81.501
			C2246.807,858.117,2261.951,776.338,2273.567,766.241z"/>
		<path style="fill:#91CECF;" d="M2217.021,767.352c-4,1.509-11.669,9.365-13.396,13.709l-5.397,68.816
			c0,0,11.523-50.503,17.39-73.331C2217.107,770.744,2216.833,768.981,2217.021,767.352z"/>
		<path style="fill:#C65447;" d="M2185.549,908.744c0,0-1.172-5.129-7.923-4.533c-6.752,0.596-44.679,2.462-44.679,2.462
			s-7.314-0.12-6.636,4.567L2185.549,908.744z"/>
	</g>
	<polygon style="fill:#FFFFFF;" points="1421.889,810.875 1424.137,827.628 1429.339,827.628 1431.068,810.875 	"/>
	<g>
		<path style="fill:#FFFFFF;" d="M1353.69,1190.723c-14.003,0-29.873-2.766-47.363-8.319
			c-31.893-10.125-58.329-26.102-58.592-26.262l1.753-2.88c1.035,0.63,104.061,62.45,149.872,18.025
			c34.399-33.354,39.643-124.837,37.984-195.708c-1.803-77.048-11.963-147.01-12.065-147.707l3.335-0.49
			c0.103,0.7,10.292,70.865,12.1,148.118c2.436,104.061-10.688,170.747-39.007,198.207
			C1390.033,1185.027,1373.783,1190.721,1353.69,1190.723z"/>
	</g>
	<path style="fill:#FFFFFF;" d="M1240.087,1161.598L1240.087,1161.598c-1.339-2.319-0.537-5.313,1.783-6.653l8.612-4.972
		c2.32-1.34,5.313-0.537,6.653,1.782l0,0c1.339,2.32,0.537,5.313-1.783,6.653l-8.612,4.973
		C1244.42,1164.72,1241.427,1163.918,1240.087,1161.598z"/>
	<g>
		<path style="fill:#2C3A64;" d="M1714.165,686.993c0.08-2.207,1.788-25.988,38.012-27.231c0,0-17.813,2.124-20.891,9.955
			c0,0,12.129-9.676,22.007-6.564c9.877,3.112,15.678,20.418,15.736,26.109c0.058,5.691-5.43,24.04-11.698,25.6
			c-2.374,0.591-5.109,0.433-7.593,0.009c1.668,2.604,3.303,5.477,4.866,8.685c14.454,29.671-0.453,58.669-12.689,55.465
			c-7.848-2.055-10.068,11.337-10.068,11.337l-76.245-61.726C1655.602,728.632,1683.605,670.684,1714.165,686.993z"/>
		<path style="fill:#FFB27D;" d="M1506.366,1057.984c6.373,5.638,23.286-13.727,25.615-16.3c0.123-0.245,0.245-0.368,0.245-0.368
			l-5.147-14.34c0,0-22.184-0.857-25.86,2.818C1497.542,1033.473,1499.381,1051.979,1506.366,1057.984z"/>
		<path style="fill:#FFB27D;" d="M1527.082,1026.979l2.205,14.831c0,0,0.983,0,2.691-0.13c5.394-0.367,18.506-1.103,33.337-2.691
			c14.149-1.395,29.985-3.491,42.352-6.486c7.134-1.729,13.122-3.771,16.971-6.139c16.052-9.805,42.406-39.834,59.561-69.863
			c0.497-0.735,0.865-1.47,1.232-2.205c5.772-10.291,10.432-20.527,13.134-29.888c1.492-5.135,2.378-9.999,2.551-14.474
			c0.368-7.718-0.486-14.344-2.086-20.106c-2.075-7.599-5.513-13.599-9.069-18.139c-0.486-0.735-0.973-1.47-1.708-2.075
			c-5.892-6.994-11.652-9.934-11.652-9.934c-2.346-0.973-4.843-0.238-7.427,1.902c-0.292,0.227-0.573,0.486-0.864,0.746
			c-0.011,0.011-0.021,0.033-0.043,0.044c-0.368,0.346-0.735,0.713-1.104,1.113v0.119c-0.951,0.995-1.924,2.173-2.918,3.513
			c-0.011,0.011-0.021,0.022-0.021,0.033c-1.827,2.464-3.697,5.48-5.513,8.961c-0.119,0.119-0.249,0.238-0.249,0.368
			c-0.605,1.103-1.222,2.324-1.957,3.675c-0.248,0.238-0.367,0.605-0.486,0.854c-1.351,2.821-2.702,5.761-4.053,8.82
			c-15.068,32.851-31.121,82.607-44.481,97.438c-3.113,3.448-12.247,8.68-23.295,14.236v0.011c-0.205,0.098-0.422,0.205-0.638,0.313
			c-0.021,0.011-0.043,0.021-0.065,0.032c-9.209,4.616-19.684,9.426-29.077,13.599
			C1539.34,1022.071,1527.082,1026.979,1527.082,1026.979z"/>
		<path style="fill:#ABDDDA;" d="M1583.648,1002.052c0.713,1.633,3.935,9.318,9.134,17.134c4.216,6.345,9.761,12.766,16.322,16.073
			c5.037-2.432,14.117-6.01,17.966-8.377c13.922-8.507,33.779-32.624,49.994-58.48c2.475-3.945,4.864-7.923,7.134-11.901
			c0.497-0.735,0.865-1.47,1.232-2.205c5.772-10.291,10.432-20.527,13.134-29.888l-29.392-62.825l-0.075-0.151
			c-0.108,0.108-0.379,0.421-0.789,0.897c-0.011,0.011-0.021,0.033-0.043,0.044c-0.822,0.962-2.217,2.605-4.021,4.745
			c-0.011,0.011-0.021,0.022-0.021,0.033c-1.827,2.464-3.697,5.48-5.513,8.961c-0.119,0.119-0.249,0.238-0.249,0.368
			c-0.605,1.103-1.222,2.324-1.957,3.675c-0.248,0.238-0.367,0.605-0.486,0.854c-1.351,2.821-2.702,5.761-4.053,8.82
			c-15.068,32.851-31.121,82.607-44.481,97.438c-3.113,3.448-12.247,8.68-23.295,14.236v0.011
			C1583.951,1001.868,1583.767,1002.052,1583.648,1002.052z"/>
		<path style="fill:#91CECF;" d="M1592.782,1019.185c4.216,6.345,9.761,12.766,16.322,16.073c5.037-2.432,14.117-6.01,17.966-8.377
			c13.922-8.507,33.779-32.624,49.994-58.48c-0.605-8.129-43.152,33.618-48.557,41.184
			C1624.433,1015.294,1603.375,1018.126,1592.782,1019.185z"/>
		<path style="fill:#B5453C;" d="M1687.618,1561.111l16.195,6.03c0,0,70.343-97.563,79.004-183.4
			c1.547-15.324,1.031-30.173-2.313-43.885c0,0,0.688-3.927,1.891-10.868c0.555-3.239,1.242-7.14,2.022-11.609
			c2.288-13.103,5.435-31.032,9.031-51.447c8.276-46.979,19-107.033,27.33-151.182l-4.363-1.401l-47.217-15.231l-9.758-30.993
			l-35.157-9.255c0,0-7.854,15.363-14.875,87.939c-1.296,9.521-2.473,20.019-3.358,31.402c-2.737,34.748-2.936,77.853,3.345,127.131
			c1.613,12.614,3.649,25.638,6.175,39.019c1.852,9.812,2.129,23.179,1.349,38.529
			C1713.375,1452.06,1687.618,1561.111,1687.618,1561.111z"/>
		<path style="fill:#93312C;" d="M1706.05,1177.211l76.345,151.777c0.555-3.239,1.242-7.14,2.022-11.609
			c2.288-13.103,5.435-31.032,9.031-51.447c8.276-46.979,19-107.033,27.33-151.182l-4.363-1.401l-47.217-15.231l-9.758-30.993
			l-35.157-9.255c0,0-7.854,15.363-14.875,87.939C1708.112,1155.329,1706.936,1165.827,1706.05,1177.211z"/>
		<path style="fill:#B5453C;" d="M1739.636,1077.346l1.767-15.156c29.609,7.865,108.722-21.975,108.722-21.975
			s28.685,25.214,24.918,85.653c-1.838,29.501-5.195,154.856-8.702,191.951c-1.268,13.444-2.378,23.012-2.832,26.834
			c-0.009,0.018-0.009,0.027-0.009,0.036c-0.139,1.166,0.269,2.268,0.86,3.285c5.163,8.763,9.438,17.886,12.945,27.222
			c34.42,91.725-5.303,204.684-5.303,204.684l-10.308-4.155c0,0-22.604-125.709-40.972-181.245
			c-3.118-9.419-6.106-16.821-8.846-21.245c-7.985-12.889-15.396-33.948-22.123-58.996c-12.714-47.355-22.947-108.96-29.758-156.511
			C1759.057,1157.771,1739.636,1077.346,1739.636,1077.346z"/>
		<path style="fill:#FFB27D;" d="M1717.17,901.504c50.904,2.79,39.719-73.092,36.611-72.708
			c-6.228-3.253-17.413-19.053-23.879-45.484l-2.195,1.018l-36.73,17.268c0,0,3.9,11.953,6.783,23.39
			c2.247,8.951,3.86,17.599,2.512,20.018c-2.896,1.177-4.627,1.918-4.627,1.918s0,0.013-0.014,0.039
			C1695.261,847.901,1703.59,900.763,1717.17,901.504z"/>
		<path style="fill:#ED985F;" d="M1690.976,801.605c0,0,3.905,11.941,6.782,23.389c21.471-5.99,27.99-28.559,29.952-40.657
			L1690.976,801.605z"/>
		<path style="fill:#FFB27D;" d="M1686.454,814.249c0,0,51.366-11.888,43.471-43.763c-7.896-31.874-6.583-54.876-39.713-48.633
			c-33.13,6.243-36.465,19.978-36.417,31.258C1653.843,764.391,1672.889,816.519,1686.454,814.249z"/>
		<path style="fill:#2C3A64;" d="M1650.906,735.015c5.522-11.553,12.021-10.936,16.087-8.889c24.136-22.331,47.81-4.087,47.81-4.087
			c9.111,22.013,28.859,31.007,28.859,31.007s-7.891,8.08-30.762,7.902c-6.986-0.054-14.01-3.262-20.401-7.682
			c12.328,12.417,26.783,19.976,26.783,19.976c-28.63-5.479-47.829-38.624-49.796-42.144c-2.425,3.581-7.064,11.206-7.455,17.643
			c-0.53,8.75,2.48,25.739-2.53,26.383C1659.501,775.124,1642.625,752.34,1650.906,735.015z"/>
		<path style="fill:#233862;" d="M1812.074,1588.301h81.568c0,0,1.955-12.432-2.306-21.863c-4.082-9.051-10.477-13.164-8.945-24.113
			c-5.184,5.336-13.631,11.313-25.423,9.727c-1.445,2.342-9.327,14.879-14.153,18.346
			C1837.484,1574.228,1813.715,1572.862,1812.074,1588.301z"/>
		<path style="fill:#233862;" d="M1636.935,1588.301h81.569c0,0,3.049-13.01-2.306-21.863c-4.741-7.833-2.924-12.295,0.587-18.775
			c-3.695,1.512-8.476,2.889-13.738,2.587c-4.064-0.233-8.361-2.078-12.131-4.267c-3.511,4.002-18.543,21.039-23.24,24.414
			C1662.346,1574.228,1638.576,1572.862,1636.935,1588.301z"/>
		<path style="fill:#ABDDDA;" d="M1669.098,861.431l13.371,179.622l8.184,109.987c12.582,3.913,24.559,6.973,35.92,9.318
			c0.745-9.221,3.729-20.247,3.729-20.247c-0.129,5.783,6.638,16.853,10.648,22.873c104.452,16.733,153.42-28.829,153.42-28.829
			c-4.064-40.33-21.663-121.91-42.73-190.302c-4.389-14.226-8.918-27.878-13.512-40.471c-10.442-28.634-17.08-43.584-22.711-55.172
			c-10.713-22.03-58.599-20.646-58.599-20.646c-9.221,33.239-34.569,53.961-34.569,53.961
			c-13.512-7.934-23.576-35.833-23.576-35.833L1669.098,861.431z"/>
		<path style="fill:#6BB7BF;" d="M1746.258,821.422c0,0,8.69,0.584,10.555,6.141c0,0-11.341,45.647-34.561,53.957L1746.258,821.422z
			"/>
		<path style="fill:#6BB7BF;" d="M1722.252,881.521c0,0-21.669-36.046-21.583-41.458c0,0-8.952,3.481-8.396,9.034
			C1692.272,849.097,1710.96,879.026,1722.252,881.521z"/>
		<path style="fill:#91CECF;" d="M1781.733,865.279c-0.627,2.162-78.827,127.012-80.533,151.875
			c-1.706,24.861,32.885,10.81,33.425,7.566C1735.166,1021.477,1781.733,865.279,1781.733,865.279z"/>
		<path style="fill:#91CECF;" d="M1682.469,1041.053l8.184,109.987c111.867-32.224,118.019-268.282,118.019-268.282l-69.138,124.818
			l-56.459,32.634C1683.074,1040.21,1682.857,1040.502,1682.469,1041.053z"/>
		<path style="fill:#FFB27D;" d="M1632.724,1051.127l4.291,15.686c0,0,5.394-0.984,13.977-2.573
			c2.573-0.497,4.043-0.864,4.043-0.864c6.864-1.341,15.068-3.179,24.019-5.146h0.13c15.317-3.676,32.472-8.086,46.936-12.993
			c1.297-0.454,2.572-0.908,3.815-1.362c8.551-3.156,15.944-6.475,21.187-9.793c0.616-0.368,1.103-0.735,1.719-1.222
			c14.334-10.421,31.369-41.055,44.611-73.905c1.838-4.529,3.556-9.069,5.265-13.479c6.129-16.419,11.036-32.602,13.977-46.578
			c1.838-8.334,3.059-15.933,3.308-22.181c0.119-2.205,0.249-4.291,0.119-6.248c-0.238-35.542-25.37-39.217-28.678-35.174
			c-4.162,5.026-8.572,13.231-13.112,23.165c-6.982,15.804-14.334,36.277-21.197,56.62c-3.806,11.156-7.48,22.311-11.156,32.602
			c-2.086,6.247-4.172,12.128-6.129,17.522c-3.805,10.302-7.231,18.636-10.29,23.9c-1.968,3.437-7.6,8.215-15.08,13.609
			c-1.978,1.438-4.107,2.918-6.334,4.442c-12.398,8.421-28.181,17.803-42.2,25.705c-6.864,3.924-13.361,7.48-18.755,10.42
			C1638.485,1048.058,1632.724,1051.127,1632.724,1051.127z"/>
		<path style="fill:#ABDDDA;" d="M1708.142,1007.154c0,0-0.901,29.636,26.844,44.049c32.068-11.574,49.223-59.398,62.465-92.249
			c1.838-4.529,3.556-9.069,5.265-13.479c6.129-16.419,11.036-32.602,13.977-46.578c1.838-8.334,3.059-15.933,3.308-22.181
			c0.119-2.205,0.249-4.291,0.119-6.248c-0.238-35.542-25.37-39.217-28.678-35.174c-4.162,5.026-8.572,13.231-13.112,23.165
			c-6.982,15.804-14.334,36.277-21.197,56.62c-3.806,11.156-7.48,22.311-11.156,32.602c-2.086,6.247-4.172,12.128-6.129,17.522
			c-3.805,10.302-7.231,18.636-10.29,23.9c-1.968,3.437-7.6,8.215-15.08,13.609
			C1712.498,1004.149,1710.368,1005.63,1708.142,1007.154z"/>
		<path style="fill:#ABDDDA;" d="M1583.485,1001.857c0.033,0.13,0.087,0.194,0.163,0.194c-0.044-0.097-0.076-0.173-0.098-0.227
			C1583.453,1001.631,1583.432,1001.631,1583.485,1001.857z"/>
		<g>
			<g>
				
					<rect x="1512.188" y="659.762" transform="matrix(-1 -1.224647e-16 1.224647e-16 -1 3045.7373 2239.6416)" style="fill:#FFFFFF;" width="21.362" height="920.118"/>
				<g>
					<path style="fill:#FFFFFF;" d="M1428.28,813.32h2.119c18.229,0,33.144-14.915,33.144-33.144v-87.708h-68.406v87.708
						C1395.136,798.405,1410.051,813.32,1428.28,813.32z"/>
					<path style="fill:#AEC3FF;" d="M1428.167,807.305h0.869c15.559,0,28.289-12.73,28.289-28.29v-19.193h-57.447v19.193
						C1399.878,794.575,1412.608,807.305,1428.167,807.305z"/>
				</g>
				
					<rect x="1380.521" y="659.762" transform="matrix(-1 -1.224647e-16 1.224647e-16 -1 2914.0713 1336.0195)" style="fill:#FFFFFF;" width="153.028" height="16.496"/>
				
					<rect x="1422.706" y="676.258" transform="matrix(-1 -1.224647e-16 1.224647e-16 -1 2857.2031 1372.4448)" style="fill:#FFFFFF;" width="11.791" height="19.929"/>
			</g>
			<rect x="1465.162" y="1561.473" style="fill:#FFFFFF;" width="120.264" height="23.234"/>
		</g>
		<rect x="1512.188" y="1031.607" style="fill:#FFFFFF;" width="98.34" height="42.805"/>
		<rect x="1522.869" y="1039.629" style="fill:#AEC3FF;" width="79.791" height="21.783"/>
		<path style="fill:#FFB27D;" d="M1585.27,1049.565c6.751-0.032,17.399-0.494,23.558-2.855c0,0-19.67-0.28-15.488-6.495
			c0.761-1.132,10.538-0.275,21.455-0.275c4.476,0,15.54,6.134,14.97,6.418c7.909-1.045,15.101-2.577,17.426-3.079
			c0.612-0.123,0.857-0.245,0.857-0.245l6.985,20.345c0,0-1.47,0.367-4.044,0.857c-6.496,1.594-19.854,5.025-32.479,9.929
			c-17.648,6.985-30.632-1.7-36.523-7.845c-3.734-3.895-6.677-9.064-6.473-12.814
			C1575.736,1049.396,1581.154,1049.585,1585.27,1049.565z"/>
	</g>
</g>
</svg>
